<?xml version="1.0" encoding="utf-8"?>
<!-- Generator: Adobe Illustrator 26.0.0, SVG Export Plug-In . SVG Version: 6.00 Build 0)  -->
<svg version="1.1" id="Layer_1" xmlns="http://www.w3.org/2000/svg" xmlns:xlink="http://www.w3.org/1999/xlink" x="0px" y="0px"
	 viewBox="0 0 250 25.42" style="enable-background:new 0 0 250 25.42;" xml:space="preserve">
<style type="text/css">
	.st0{fill:#231F20;}
</style>
<g>
	<g>
		<g>
			<path d="M95.92,1.67c-0.29-0.48-0.69-0.88-1.17-1.18c-0.47-0.29-1.01-0.46-1.55-0.49c-0.53-0.03-1.08,0.07-1.58,0.3
				c-0.48,0.22-0.9,0.52-1.3,0.93c-0.36,0.38-0.65,0.84-0.86,1.35c-0.36,0.86-0.5,1.73-0.63,2.51c-0.02,0.09-0.03,0.18-0.05,0.27
				c-0.15,0.92-0.28,1.67-0.46,2.33c-0.1,0.39-0.2,0.67-0.31,0.92c-0.12,0.26-0.26,0.48-0.41,0.67c-0.32,0.38-0.66,0.56-0.91,0.65
				c-0.42-0.64-0.98-1.18-1.72-1.53c-2.51-1.19-7.13,0.4-10.03,1.64c0.11-0.55,0.02-1.12-0.38-1.58c-0.81-0.94-1.9-0.44-2.57,0.21
				c-1.01-1.14-2.68-1.21-4.05-0.56c0.01-0.02,0.01-0.04,0.02-0.06c0,0,0.09-2.15-1.08-2.54c-1.34-0.44-2.14,1.61-1.33,3.03
				c0.25,0.43,0.57,0.66,0.89,0.72c-1.29,1.56-2.23,4.31-2.65,5.68c-0.01-0.01-0.01-0.02-0.02-0.03c-0.21-0.37-0.54-0.58-0.72-0.45
				c-0.19,0.12-0.17,0.53,0.04,0.9c0.21,0.37,0.54,0.58,0.72,0.45c0.55,0.09,1.93,0.28,3.45,0.22c0.22,0.71,0.61,2.02,0.63,2.63
				c0.03,0.85-3.94,2.39-5.25,3.87c-0.92,1.05-0.55,1.45,0.45,1.14c0.01-0.01,0.02-0.01,0.03-0.01c0.03-0.01,0.06-0.02,0.08-0.03
				c0.02-0.01,0.04-0.01,0.05-0.02c0.02-0.01,0.05-0.02,0.07-0.03c0.02-0.01,0.05-0.02,0.07-0.03c0.02-0.01,0.05-0.02,0.07-0.03
				c0.03-0.01,0.06-0.03,0.09-0.04c0.02-0.01,0.03-0.02,0.05-0.02c0.05-0.02,0.1-0.05,0.15-0.07c0.02-0.01,0.03-0.02,0.05-0.02
				c0.04-0.02,0.07-0.04,0.11-0.06c0.02-0.01,0.04-0.02,0.06-0.03c0.03-0.02,0.07-0.04,0.1-0.06c0.02-0.01,0.04-0.02,0.06-0.04
				c0.04-0.02,0.07-0.04,0.1-0.06c0.02-0.01,0.04-0.03,0.06-0.04c0.04-0.02,0.08-0.05,0.11-0.07c0.02-0.01,0.04-0.02,0.06-0.04
				c0.06-0.04,0.11-0.07,0.17-0.11c0,0,0,0,0.01,0c0.06-0.04,0.12-0.08,0.18-0.12c0.02-0.01,0.04-0.03,0.06-0.04
				c0.04-0.03,0.09-0.05,0.13-0.08c0.03-0.01,0.05-0.03,0.07-0.04c0.04-0.02,0.09-0.05,0.13-0.07c0.02-0.02,0.05-0.03,0.07-0.04
				c0.05-0.03,0.09-0.05,0.14-0.07c0.02-0.01,0.05-0.03,0.07-0.04c0.05-0.03,0.11-0.06,0.16-0.08c0.02-0.01,0.03-0.02,0.05-0.02
				c0.15-0.07,0.3-0.15,0.45-0.21c0.01-0.01,0.01-0.01,0.02-0.01c0.07-0.03,0.14-0.06,0.21-0.1c0.01-0.01,0.02-0.01,0.03-0.02
				c0.07-0.03,0.14-0.06,0.21-0.09c0.01,0,0.02-0.01,0.02-0.01c1.49-0.64,3.1-1.19,3.9-1.71c0.05-0.03,0.09-0.06,0.13-0.09
				c0.01,0,0.01-0.01,0.01-0.01c0.04-0.03,0.07-0.05,0.1-0.08c0,0,0,0,0.01-0.01c0.03-0.03,0.06-0.06,0.09-0.09
				c0.01-0.01,0.01-0.01,0.02-0.02c0.01-0.01,0.02-0.02,0.02-0.03c0.02-0.02,0.04-0.05,0.06-0.07c0.02-0.02,0.03-0.05,0.04-0.07
				c0.01-0.03,0.02-0.05,0.03-0.08c0.02,0,0.02-0.01,0.01-0.03c0.22,0.3,0.45,0.58,0.69,0.82c-0.29,0.87-3.97,2.34-5.23,3.76
				c-0.97,1.09-0.51,1.49,0.6,1.09c0.01-0.01,0.03-0.01,0.04-0.02c0.03-0.01,0.05-0.02,0.08-0.03c0.02-0.01,0.04-0.02,0.07-0.03
				c0.02-0.01,0.05-0.02,0.07-0.03c0.03-0.01,0.05-0.02,0.08-0.03c0.02-0.01,0.05-0.02,0.07-0.03c0.03-0.01,0.06-0.03,0.09-0.04
				c0.02-0.01,0.05-0.02,0.07-0.03c0.03-0.02,0.06-0.03,0.09-0.05c0.02-0.01,0.05-0.02,0.07-0.04c0.03-0.02,0.06-0.04,0.1-0.05
				c0.02-0.01,0.05-0.02,0.07-0.04c0.03-0.02,0.07-0.04,0.1-0.06c0.02-0.01,0.04-0.03,0.07-0.04c0.04-0.02,0.08-0.05,0.12-0.07
				c0.02-0.01,0.04-0.02,0.06-0.04c0.06-0.04,0.12-0.08,0.18-0.12c1.99-1.33,5.72-2.23,6.34-3.13c0.02-0.03,0.03-0.05,0.05-0.08
				c0-0.01,0.01-0.01,0.01-0.02c0.01-0.03,0.02-0.06,0.03-0.09c0-0.01,0-0.01,0-0.02c0-0.01,0.01-0.02,0.01-0.02
				c1.59-0.41,3.14-1.16,4.2-1.74c0.05,0.05,0.1,0.09,0.15,0.14c0,0,0,0,0,0c0.11,0.1,0.22,0.2,0.35,0.3c0,0,0.01,0.01,0.01,0.01
				c0.06,0.05,0.12,0.1,0.18,0.14c0.01,0.01,0.01,0.01,0.02,0.01c0.12,0.09,0.25,0.19,0.38,0.28c0.01,0.01,0.02,0.01,0.02,0.02
				c0.06,0.04,0.13,0.09,0.2,0.13c0.01,0.01,0.02,0.01,0.03,0.02c0.14,0.09,0.28,0.17,0.43,0.26c0.01,0.01,0.02,0.01,0.03,0.02
				c0.07,0.04,0.15,0.08,0.22,0.12c0.01,0.01,0.03,0.01,0.04,0.02c0.16,0.08,0.32,0.16,0.49,0.24c0.01,0.01,0.03,0.01,0.04,0.02
				c0.08,0.04,0.16,0.08,0.25,0.11c0.02,0.01,0.03,0.01,0.05,0.02c0.18,0.08,0.36,0.15,0.55,0.22c0.02,0.01,0.03,0.02,0.05,0.02
				c0.09,0.04,0.18,0.07,0.28,0.1c0.02,0.01,0.04,0.01,0.05,0.02c0.2,0.07,0.4,0.13,0.61,0.2c0.02,0.01,0.04,0.01,0.06,0.02
				c0.1,0.03,0.2,0.06,0.31,0.09c0.02,0.01,0.04,0.01,0.06,0.02c0.11,0.03,0.22,0.06,0.33,0.09c3.64,0.93,6.24-0.31,6.24-0.31
				l0.39,2.82c0,0-1.98-0.32-1.92,0.25c0,0.03,0.01,0.05,0.02,0.07c0,0.01,0.01,0.01,0.01,0.02c0.01,0.02,0.02,0.04,0.03,0.05
				c0,0.01,0.01,0.01,0.01,0.02c0.32,0.52,1.9,0.43,2.65,0.07c0.69-0.33,0.33-5.79,0.33-5.79c-3.17,0.31-4.29-2.15-4.29-2.15
				s0.53-3.34-0.46-5.98c0.35-0.16,0.82-0.45,1.24-0.99c0.22-0.28,0.41-0.61,0.57-0.97c0.14-0.31,0.26-0.68,0.36-1.13
				c0.2-0.79,0.32-1.66,0.43-2.47l0.03-0.2c0.11-0.78,0.22-1.59,0.51-2.32c0.15-0.39,0.36-0.74,0.62-1.04
				c0.13-0.14,0.28-0.28,0.45-0.41c0.19-0.14,0.36-0.24,0.52-0.32c0.37-0.18,0.77-0.27,1.16-0.26c0.4,0.01,0.79,0.12,1.15,0.33
				c0.74,0.42,1.24,1.21,1.28,2.02c0.02,0.4-0.07,0.81-0.26,1.2c-0.17,0.35-0.42,0.69-0.74,1c-0.16,0.15-0.33,0.3-0.5,0.44
				c-0.17,0.14-0.34,0.29-0.5,0.44c-0.34,0.31-0.66,0.62-0.94,0.93c-0.67,0.72-1.14,1.39-1.43,2.03c-0.19,0.42-0.3,0.79-0.32,1.15
				c-0.04,0.43,0.06,0.84,0.26,1.15c0.21,0.32,0.5,0.54,0.81,0.62c0.09,0.02,0.18,0.04,0.28,0.04c0.19,0,0.38-0.05,0.57-0.14
				c0.41-0.2,0.66-0.47,0.83-0.65l0.02-0.02c0.16-0.18,0.23-0.29,0.24-0.3c0.08-0.12,0.06-0.29-0.06-0.38
				c-0.11-0.09-0.27-0.06-0.36,0.06c0,0-0.07,0.09-0.2,0.24l-0.01,0.01c-0.15,0.16-0.36,0.37-0.68,0.52
				c-0.12,0.05-0.31,0.11-0.49,0.05c-0.17-0.05-0.34-0.19-0.46-0.39c-0.12-0.19-0.17-0.45-0.14-0.73c0.03-0.27,0.12-0.58,0.28-0.91
				c0.28-0.57,0.72-1.16,1.36-1.82c0.27-0.28,0.58-0.57,0.92-0.86c0.15-0.13,0.32-0.27,0.5-0.42l0.11-0.09
				c0.14-0.11,0.29-0.23,0.43-0.36c0.4-0.37,0.72-0.78,0.94-1.21c0.27-0.52,0.4-1.08,0.38-1.64C96.4,2.75,96.23,2.16,95.92,1.67"/>
		</g>
		<g>
			<path d="M142.96,1.67c-0.29-0.48-0.69-0.88-1.17-1.18c-0.47-0.29-1.01-0.46-1.55-0.49c-0.53-0.03-1.08,0.07-1.58,0.3
				c-0.48,0.22-0.9,0.52-1.3,0.93c-0.36,0.38-0.65,0.84-0.86,1.35c-0.36,0.86-0.5,1.73-0.63,2.51c-0.02,0.09-0.03,0.18-0.05,0.27
				c-0.15,0.92-0.28,1.67-0.46,2.33c-0.1,0.39-0.2,0.67-0.31,0.92c-0.12,0.26-0.26,0.48-0.41,0.67c-0.32,0.38-0.66,0.56-0.91,0.65
				c-0.42-0.64-0.98-1.18-1.72-1.53c-2.51-1.19-7.13,0.4-10.03,1.64c0.11-0.55,0.02-1.12-0.38-1.58c-0.81-0.94-1.9-0.44-2.57,0.21
				c-1.01-1.14-2.68-1.21-4.05-0.56c0.01-0.02,0.01-0.04,0.02-0.06c0,0,0.09-2.15-1.08-2.54c-1.34-0.44-2.14,1.61-1.33,3.03
				c0.25,0.43,0.57,0.66,0.89,0.72c-1.29,1.56-2.23,4.31-2.65,5.68c-0.01-0.01-0.01-0.02-0.02-0.03c-0.21-0.37-0.54-0.58-0.72-0.45
				c-0.19,0.12-0.17,0.53,0.04,0.9c0.21,0.37,0.54,0.58,0.72,0.45c0.55,0.09,1.93,0.28,3.45,0.22c0.22,0.71,0.61,2.02,0.63,2.63
				c0.03,0.85-3.94,2.39-5.25,3.87c-0.92,1.05-0.55,1.45,0.45,1.14c0.01-0.01,0.02-0.01,0.03-0.01c0.03-0.01,0.06-0.02,0.08-0.03
				c0.02-0.01,0.04-0.01,0.05-0.02c0.02-0.01,0.05-0.02,0.07-0.03c0.02-0.01,0.05-0.02,0.07-0.03c0.02-0.01,0.05-0.02,0.07-0.03
				c0.03-0.01,0.06-0.03,0.09-0.04c0.02-0.01,0.03-0.02,0.05-0.02c0.05-0.02,0.1-0.05,0.15-0.07c0.02-0.01,0.03-0.02,0.05-0.02
				c0.04-0.02,0.07-0.04,0.11-0.06c0.02-0.01,0.04-0.02,0.06-0.03c0.03-0.02,0.07-0.04,0.1-0.06c0.02-0.01,0.04-0.02,0.06-0.04
				c0.04-0.02,0.07-0.04,0.1-0.06c0.02-0.01,0.04-0.03,0.06-0.04c0.04-0.02,0.08-0.05,0.11-0.07c0.02-0.01,0.04-0.02,0.06-0.04
				c0.06-0.04,0.11-0.07,0.17-0.11c0,0,0,0,0.01,0c0.06-0.04,0.12-0.08,0.18-0.12c0.02-0.01,0.04-0.03,0.06-0.04
				c0.04-0.03,0.09-0.05,0.13-0.08c0.03-0.01,0.05-0.03,0.07-0.04c0.04-0.02,0.09-0.05,0.13-0.07c0.02-0.02,0.05-0.03,0.07-0.04
				c0.05-0.03,0.09-0.05,0.14-0.07c0.02-0.01,0.05-0.03,0.07-0.04c0.05-0.03,0.11-0.06,0.16-0.08c0.02-0.01,0.03-0.02,0.05-0.02
				c0.15-0.07,0.3-0.15,0.45-0.21c0.01-0.01,0.01-0.01,0.02-0.01c0.07-0.03,0.14-0.06,0.21-0.1c0.01-0.01,0.02-0.01,0.03-0.02
				c0.07-0.03,0.14-0.06,0.21-0.09c0.01,0,0.02-0.01,0.02-0.01c1.49-0.64,3.1-1.19,3.9-1.71c0.05-0.03,0.09-0.06,0.13-0.09
				c0.01,0,0.01-0.01,0.01-0.01c0.04-0.03,0.07-0.05,0.1-0.08c0,0,0,0,0.01-0.01c0.03-0.03,0.06-0.06,0.09-0.09
				c0.01-0.01,0.01-0.01,0.02-0.02c0.01-0.01,0.02-0.02,0.02-0.03c0.02-0.02,0.04-0.05,0.06-0.07c0.02-0.02,0.03-0.05,0.04-0.07
				c0.01-0.03,0.02-0.05,0.03-0.08c0.02,0,0.02-0.01,0.01-0.03c0.22,0.3,0.45,0.58,0.69,0.82c-0.29,0.87-3.97,2.34-5.23,3.76
				c-0.97,1.09-0.51,1.49,0.6,1.09c0.01-0.01,0.03-0.01,0.04-0.02c0.03-0.01,0.05-0.02,0.08-0.03c0.02-0.01,0.04-0.02,0.07-0.03
				c0.02-0.01,0.05-0.02,0.07-0.03c0.03-0.01,0.05-0.02,0.08-0.03c0.02-0.01,0.05-0.02,0.07-0.03c0.03-0.01,0.06-0.03,0.09-0.04
				c0.02-0.01,0.05-0.02,0.07-0.03c0.03-0.02,0.06-0.03,0.09-0.05c0.02-0.01,0.05-0.02,0.07-0.04c0.03-0.02,0.06-0.04,0.1-0.05
				c0.02-0.01,0.05-0.02,0.07-0.04c0.03-0.02,0.07-0.04,0.1-0.06c0.02-0.01,0.04-0.03,0.07-0.04c0.04-0.02,0.08-0.05,0.12-0.07
				c0.02-0.01,0.04-0.02,0.06-0.04c0.06-0.04,0.12-0.08,0.18-0.12c1.99-1.33,5.72-2.23,6.34-3.13c0.02-0.03,0.03-0.05,0.05-0.08
				c0-0.01,0.01-0.01,0.01-0.02c0.01-0.03,0.02-0.06,0.03-0.09c0-0.01,0-0.01,0-0.02c0-0.01,0.01-0.02,0.01-0.02
				c1.59-0.41,3.14-1.16,4.2-1.74c0.05,0.05,0.1,0.09,0.15,0.14c0,0,0,0,0,0c0.11,0.1,0.22,0.2,0.35,0.3c0,0,0.01,0.01,0.01,0.01
				c0.06,0.05,0.12,0.1,0.18,0.14c0.01,0.01,0.01,0.01,0.02,0.01c0.12,0.09,0.25,0.19,0.38,0.28c0.01,0.01,0.02,0.01,0.02,0.02
				c0.06,0.04,0.13,0.09,0.2,0.13c0.01,0.01,0.02,0.01,0.03,0.02c0.14,0.09,0.28,0.17,0.43,0.26c0.01,0.01,0.02,0.01,0.03,0.02
				c0.07,0.04,0.15,0.08,0.22,0.12c0.01,0.01,0.03,0.01,0.04,0.02c0.16,0.08,0.32,0.16,0.49,0.24c0.01,0.01,0.03,0.01,0.04,0.02
				c0.08,0.04,0.16,0.08,0.25,0.11c0.02,0.01,0.03,0.01,0.05,0.02c0.18,0.08,0.36,0.15,0.55,0.22c0.02,0.01,0.03,0.02,0.05,0.02
				c0.09,0.04,0.18,0.07,0.28,0.1c0.02,0.01,0.04,0.01,0.05,0.02c0.2,0.07,0.4,0.13,0.61,0.2c0.02,0.01,0.04,0.01,0.06,0.02
				c0.1,0.03,0.2,0.06,0.31,0.09c0.02,0.01,0.04,0.01,0.06,0.02c0.11,0.03,0.22,0.06,0.33,0.09c3.64,0.93,6.24-0.31,6.24-0.31
				l0.39,2.82c0,0-1.98-0.32-1.92,0.25c0,0.03,0.01,0.05,0.02,0.07c0,0.01,0.01,0.01,0.01,0.02c0.01,0.02,0.02,0.04,0.03,0.05
				c0,0.01,0.01,0.01,0.01,0.02c0.32,0.52,1.9,0.43,2.65,0.07c0.69-0.33,0.33-5.79,0.33-5.79c-3.17,0.31-4.29-2.15-4.29-2.15
				s0.53-3.34-0.46-5.98c0.35-0.16,0.82-0.45,1.24-0.99c0.22-0.28,0.41-0.61,0.57-0.97c0.14-0.31,0.26-0.68,0.36-1.13
				c0.2-0.79,0.32-1.66,0.43-2.47l0.03-0.2c0.11-0.78,0.22-1.59,0.51-2.32c0.15-0.39,0.36-0.74,0.62-1.04
				c0.13-0.14,0.28-0.28,0.45-0.41c0.19-0.14,0.36-0.24,0.52-0.32c0.37-0.18,0.77-0.27,1.16-0.26c0.4,0.01,0.79,0.12,1.15,0.33
				c0.74,0.42,1.24,1.21,1.28,2.02c0.02,0.4-0.07,0.81-0.26,1.2c-0.17,0.35-0.42,0.69-0.74,1c-0.16,0.15-0.33,0.3-0.5,0.44
				c-0.17,0.14-0.34,0.29-0.5,0.44c-0.34,0.31-0.66,0.62-0.94,0.93c-0.67,0.72-1.14,1.39-1.43,2.03c-0.19,0.42-0.3,0.79-0.32,1.15
				c-0.04,0.43,0.06,0.84,0.26,1.15c0.21,0.32,0.5,0.54,0.81,0.62c0.09,0.02,0.18,0.04,0.28,0.04c0.19,0,0.38-0.05,0.57-0.14
				c0.41-0.2,0.66-0.47,0.83-0.65l0.02-0.02c0.16-0.18,0.23-0.29,0.24-0.3c0.08-0.12,0.06-0.29-0.06-0.38
				c-0.11-0.09-0.27-0.06-0.36,0.06c0,0-0.07,0.09-0.2,0.24l-0.01,0.01c-0.15,0.16-0.36,0.37-0.68,0.52
				c-0.12,0.05-0.31,0.11-0.49,0.05c-0.17-0.05-0.34-0.19-0.46-0.39c-0.12-0.19-0.17-0.45-0.14-0.73c0.03-0.27,0.12-0.58,0.28-0.91
				c0.28-0.57,0.72-1.16,1.36-1.82c0.27-0.28,0.58-0.57,0.92-0.86c0.15-0.13,0.32-0.27,0.5-0.42l0.11-0.09
				c0.14-0.11,0.29-0.23,0.43-0.36c0.4-0.37,0.72-0.78,0.94-1.21c0.27-0.52,0.4-1.08,0.38-1.64C143.44,2.75,143.26,2.16,142.96,1.67
				"/>
		</g>
		<g>
			<path d="M190,1.67c-0.29-0.48-0.69-0.88-1.17-1.18c-0.47-0.29-1.01-0.46-1.55-0.49c-0.53-0.03-1.08,0.07-1.58,0.3
				c-0.48,0.22-0.9,0.52-1.3,0.93c-0.36,0.38-0.65,0.84-0.86,1.35c-0.36,0.86-0.5,1.73-0.63,2.51c-0.02,0.09-0.03,0.18-0.05,0.27
				c-0.15,0.92-0.28,1.67-0.46,2.33c-0.1,0.39-0.2,0.67-0.31,0.92c-0.12,0.26-0.26,0.48-0.41,0.67c-0.32,0.38-0.66,0.56-0.91,0.65
				c-0.42-0.64-0.98-1.18-1.72-1.53c-2.51-1.19-7.13,0.4-10.03,1.64c0.11-0.55,0.02-1.12-0.38-1.58c-0.81-0.94-1.9-0.44-2.57,0.21
				c-1.01-1.14-2.68-1.21-4.05-0.56c0.01-0.02,0.01-0.04,0.02-0.06c0,0,0.09-2.15-1.08-2.54c-1.34-0.44-2.14,1.61-1.33,3.03
				c0.25,0.43,0.57,0.66,0.89,0.72c-1.29,1.56-2.23,4.31-2.65,5.68c-0.01-0.01-0.01-0.02-0.02-0.03c-0.21-0.37-0.54-0.58-0.72-0.45
				c-0.19,0.12-0.17,0.53,0.04,0.9c0.21,0.37,0.54,0.58,0.72,0.45c0.55,0.09,1.93,0.28,3.45,0.22c0.22,0.71,0.61,2.02,0.63,2.63
				c0.03,0.85-3.94,2.39-5.25,3.87c-0.92,1.05-0.55,1.45,0.45,1.14c0.01-0.01,0.02-0.01,0.03-0.01c0.03-0.01,0.06-0.02,0.08-0.03
				c0.02-0.01,0.04-0.01,0.05-0.02c0.02-0.01,0.05-0.02,0.07-0.03c0.02-0.01,0.05-0.02,0.07-0.03c0.02-0.01,0.05-0.02,0.07-0.03
				c0.03-0.01,0.06-0.03,0.09-0.04c0.02-0.01,0.03-0.02,0.05-0.02c0.05-0.02,0.1-0.05,0.15-0.07c0.02-0.01,0.03-0.02,0.05-0.02
				c0.04-0.02,0.07-0.04,0.11-0.06c0.02-0.01,0.04-0.02,0.06-0.03c0.03-0.02,0.07-0.04,0.1-0.06c0.02-0.01,0.04-0.02,0.06-0.04
				c0.04-0.02,0.07-0.04,0.1-0.06c0.02-0.01,0.04-0.03,0.06-0.04c0.04-0.02,0.08-0.05,0.11-0.07c0.02-0.01,0.04-0.02,0.06-0.04
				c0.06-0.04,0.11-0.07,0.17-0.11c0,0,0,0,0.01,0c0.06-0.04,0.12-0.08,0.18-0.12c0.02-0.01,0.04-0.03,0.06-0.04
				c0.04-0.03,0.09-0.05,0.13-0.08c0.03-0.01,0.05-0.03,0.07-0.04c0.04-0.02,0.09-0.05,0.13-0.07c0.02-0.02,0.05-0.03,0.07-0.04
				c0.05-0.03,0.09-0.05,0.14-0.07c0.02-0.01,0.05-0.03,0.07-0.04c0.05-0.03,0.11-0.06,0.16-0.08c0.02-0.01,0.03-0.02,0.05-0.02
				c0.15-0.07,0.3-0.15,0.45-0.21c0.01-0.01,0.01-0.01,0.02-0.01c0.07-0.03,0.14-0.06,0.21-0.1c0.01-0.01,0.02-0.01,0.03-0.02
				c0.07-0.03,0.14-0.06,0.21-0.09c0.01,0,0.02-0.01,0.02-0.01c1.49-0.64,3.1-1.19,3.9-1.71c0.05-0.03,0.09-0.06,0.13-0.09
				c0.01,0,0.01-0.01,0.01-0.01c0.04-0.03,0.07-0.05,0.1-0.08c0,0,0,0,0.01-0.01c0.03-0.03,0.06-0.06,0.09-0.09
				c0.01-0.01,0.01-0.01,0.02-0.02c0.01-0.01,0.02-0.02,0.02-0.03c0.02-0.02,0.04-0.05,0.06-0.07c0.02-0.02,0.03-0.05,0.04-0.07
				c0.01-0.03,0.02-0.05,0.03-0.08c0.02,0,0.02-0.01,0.01-0.03c0.22,0.3,0.45,0.58,0.69,0.82c-0.29,0.87-3.97,2.34-5.23,3.76
				c-0.97,1.09-0.51,1.49,0.6,1.09c0.01-0.01,0.03-0.01,0.04-0.02c0.03-0.01,0.05-0.02,0.08-0.03c0.02-0.01,0.04-0.02,0.07-0.03
				c0.02-0.01,0.05-0.02,0.07-0.03c0.03-0.01,0.05-0.02,0.08-0.03c0.02-0.01,0.05-0.02,0.07-0.03c0.03-0.01,0.06-0.03,0.09-0.04
				c0.02-0.01,0.05-0.02,0.07-0.03c0.03-0.02,0.06-0.03,0.09-0.05c0.02-0.01,0.05-0.02,0.07-0.04c0.03-0.02,0.06-0.04,0.1-0.05
				c0.02-0.01,0.05-0.02,0.07-0.04c0.03-0.02,0.07-0.04,0.1-0.06c0.02-0.01,0.04-0.03,0.07-0.04c0.04-0.02,0.08-0.05,0.12-0.07
				c0.02-0.01,0.04-0.02,0.06-0.04c0.06-0.04,0.12-0.08,0.18-0.12c1.99-1.33,5.72-2.23,6.34-3.13c0.02-0.03,0.03-0.05,0.04-0.08
				c0-0.01,0.01-0.01,0.01-0.02c0.01-0.03,0.02-0.06,0.03-0.09c0-0.01,0-0.01,0-0.02c0-0.01,0.01-0.02,0.01-0.02
				c1.59-0.41,3.14-1.16,4.2-1.74c0.05,0.05,0.1,0.09,0.15,0.14c0,0,0,0,0,0c0.11,0.1,0.22,0.2,0.35,0.3c0,0,0.01,0.01,0.01,0.01
				c0.06,0.05,0.12,0.1,0.18,0.14c0.01,0.01,0.01,0.01,0.02,0.01c0.12,0.09,0.25,0.19,0.38,0.28c0.01,0.01,0.02,0.01,0.02,0.02
				c0.06,0.04,0.13,0.09,0.2,0.13c0.01,0.01,0.02,0.01,0.03,0.02c0.14,0.09,0.28,0.17,0.43,0.26c0.01,0.01,0.02,0.01,0.03,0.02
				c0.07,0.04,0.15,0.08,0.22,0.12c0.01,0.01,0.03,0.01,0.04,0.02c0.16,0.08,0.32,0.16,0.49,0.24c0.01,0.01,0.03,0.01,0.04,0.02
				c0.08,0.04,0.16,0.08,0.25,0.11c0.02,0.01,0.03,0.01,0.05,0.02c0.18,0.08,0.36,0.15,0.55,0.22c0.02,0.01,0.03,0.02,0.05,0.02
				c0.09,0.04,0.18,0.07,0.28,0.1c0.02,0.01,0.04,0.01,0.05,0.02c0.2,0.07,0.4,0.13,0.61,0.2c0.02,0.01,0.04,0.01,0.06,0.02
				c0.1,0.03,0.2,0.06,0.31,0.09c0.02,0.01,0.04,0.01,0.06,0.02c0.11,0.03,0.22,0.06,0.33,0.09c3.64,0.93,6.24-0.31,6.24-0.31
				l0.39,2.82c0,0-1.98-0.32-1.92,0.25c0,0.03,0.01,0.05,0.02,0.07c0,0.01,0.01,0.01,0.01,0.02c0.01,0.02,0.02,0.04,0.03,0.05
				c0,0.01,0.01,0.01,0.01,0.02c0.32,0.52,1.9,0.43,2.65,0.07c0.69-0.33,0.33-5.79,0.33-5.79c-3.17,0.31-4.29-2.15-4.29-2.15
				s0.53-3.34-0.46-5.98c0.35-0.16,0.82-0.45,1.24-0.99c0.22-0.28,0.41-0.61,0.57-0.97c0.14-0.31,0.26-0.68,0.36-1.13
				c0.2-0.79,0.32-1.66,0.43-2.47l0.03-0.2c0.11-0.78,0.22-1.59,0.51-2.32c0.15-0.39,0.36-0.74,0.62-1.04
				c0.13-0.14,0.28-0.28,0.45-0.41c0.19-0.14,0.36-0.24,0.52-0.32c0.37-0.18,0.77-0.27,1.16-0.26c0.4,0.01,0.79,0.12,1.15,0.33
				c0.74,0.42,1.24,1.21,1.28,2.02c0.02,0.4-0.07,0.81-0.25,1.2c-0.17,0.35-0.42,0.69-0.74,1c-0.16,0.15-0.33,0.3-0.5,0.44
				c-0.17,0.14-0.34,0.29-0.5,0.44c-0.34,0.31-0.66,0.62-0.94,0.93c-0.67,0.72-1.14,1.39-1.43,2.03c-0.19,0.42-0.3,0.79-0.32,1.15
				c-0.04,0.43,0.06,0.84,0.26,1.15c0.21,0.32,0.5,0.54,0.81,0.62c0.09,0.02,0.18,0.04,0.28,0.04c0.19,0,0.38-0.05,0.57-0.14
				c0.41-0.2,0.66-0.47,0.83-0.65l0.02-0.02c0.16-0.18,0.23-0.29,0.24-0.3c0.08-0.12,0.06-0.29-0.06-0.38
				c-0.11-0.09-0.27-0.06-0.36,0.06c0,0-0.07,0.09-0.2,0.24l-0.01,0.01c-0.15,0.16-0.36,0.37-0.68,0.52
				c-0.12,0.05-0.31,0.11-0.49,0.05c-0.17-0.05-0.34-0.19-0.46-0.39c-0.12-0.19-0.17-0.45-0.14-0.73c0.03-0.27,0.12-0.58,0.28-0.91
				c0.28-0.57,0.72-1.16,1.36-1.82c0.27-0.28,0.58-0.57,0.92-0.86c0.15-0.13,0.32-0.27,0.5-0.42l0.11-0.09
				c0.14-0.11,0.29-0.23,0.43-0.36c0.4-0.37,0.72-0.78,0.94-1.21c0.27-0.52,0.4-1.08,0.38-1.64C190.48,2.75,190.3,2.16,190,1.67"/>
		</g>
		<g>
			<rect y="12.08" class="st0" width="40.9" height="1.26"/>
		</g>
		<g>
			<rect x="209.1" y="12.08" class="st0" width="40.9" height="1.26"/>
		</g>
	</g>
</g>
</svg>
