<?xml version="1.0" encoding="utf-8"?>
<!-- Generator: Adobe Illustrator 25.3.1, SVG Export Plug-In . SVG Version: 6.00 Build 0)  -->
<svg version="1.1" id="Logo" xmlns="http://www.w3.org/2000/svg" xmlns:xlink="http://www.w3.org/1999/xlink" x="0px" y="0px"
	 viewBox="0 0 144 84" style="enable-background:new 0 0 144 84;" xml:space="preserve">
<style type="text/css">
	.st0{fill-rule:evenodd;clip-rule:evenodd;fill:#F99C3A;}
	.st1{fill-rule:evenodd;clip-rule:evenodd;fill:#FFFFFF;}
</style>
<path class="st0" d="M142.59,60.8L120.8,82.59c-0.9,0.9-2.12,1.41-3.39,1.41H2.4C1.07,84,0,82.93,0,81.6V26.59
	c0-1.27,0.51-2.49,1.41-3.39L23.2,1.41C24.1,0.51,25.32,0,26.59,0H141.6c1.33,0,2.4,1.07,2.4,2.4v55.01
	C144,58.68,143.49,59.9,142.59,60.8z"/>
<path class="st1" d="M122.16,33h-8.1c-0.46,0-0.84,0.38-0.84,0.84v25.32c0,0.46-0.38,0.84-0.84,0.84h-7.32
	c-0.46,0-0.84-0.38-0.84-0.84V33.84c0-0.46-0.38-0.84-0.84-0.84h-8.04c-0.46,0-0.84-0.38-0.84-0.84v-7.32
	c0-0.46,0.38-0.84,0.84-0.84h26.82c0.46,0,0.84,0.38,0.84,0.84v7.32C123,32.62,122.62,33,122.16,33z M90.61,59.99h-8.18
	c-0.27,0-0.55-0.08-0.82-0.23c-0.27-0.15-0.48-0.35-0.62-0.59l-5.45-9.47c-0.07-0.14-0.19-0.21-0.36-0.21h-5.94
	c-0.17,0-0.26,0.09-0.26,0.26v9.26c0,0.65-0.33,0.98-0.98,0.98h-7.04c-0.65,0-0.98-0.33-0.98-0.98V24.98c0-0.65,0.33-0.98,0.98-0.98
	h23c0.82,0,1.6,0.16,2.34,0.49c0.74,0.33,1.37,0.75,1.9,1.29c0.53,0.53,0.96,1.17,1.29,1.9C89.83,28.42,90,29.2,90,30.02v13.52
	c0,1.3-0.39,2.48-1.16,3.52c-0.77,1.05-1.76,1.76-2.96,2.13l-0.15,0.05c-0.24,0.07-0.29,0.17-0.15,0.31l0.05,0.1l5.5,9.51
	c0.14,0.24,0.15,0.44,0.05,0.59C91.08,59.91,90.89,59.99,90.61,59.99z M81,32.28H69v9h12V32.28z M53.16,60h-7.32
	C45.38,60,45,59.62,45,59.16V47.34c0-0.46-0.38-0.84-0.84-0.84H33.84c-0.46,0-0.84,0.38-0.84,0.84v11.82c0,0.46-0.38,0.84-0.84,0.84
	h-7.32C24.38,60,24,59.62,24,59.16V24.84c0-0.46,0.38-0.84,0.84-0.84h7.32c0.46,0,0.84,0.38,0.84,0.84v11.82
	c0,0.46,0.38,0.84,0.84,0.84h10.32c0.46,0,0.84-0.38,0.84-0.84V24.84c0-0.46,0.38-0.84,0.84-0.84h7.32c0.46,0,0.84,0.38,0.84,0.84
	v34.32C54,59.62,53.62,60,53.16,60z"/>
</svg>
