<?xml version="1.0" encoding="UTF-8"?>
<!-- Created with EazyDraw for Mac ( http://www.eazydraw.com/ ) -->

<svg
    version="1.1"
    xmlns:dc="http://purl.org/dc/elements/1.1/"
    xmlns:cc="http://creativecommons.org/ns#"
    xmlns:rdf="http://www.w3.org/1999/02/22-rdf-syntax-ns#"
    xmlns:svg="http://www.w3.org/2000/svg"
    xmlns:xlink="http://www.w3.org/1999/xlink"
    xmlns="http://www.w3.org/2000/svg"
    width="541.414213562"
    height="602.890670847"
    viewBox="0, 0, 541.414213562, 602.890670847"
    preserveAspectRatio="none"
    id="svg2">
   <defs
       id="defs_8CE3D4F6"/>
   <metadata
       id="metadata7">
      <rdf:RDF>
         <cc:Work
             rdf:about="">
            <dc:format>image/svg+xml</dc:format>
            <dc:type rdf:resource="http://purl.org/dc/dcmitype/StillImage"/>
            <dc:title></dc:title>
         </cc:Work>
      </rdf:RDF>
   </metadata>
   <g
       id="layer_Paper"
       style="fill:#000000;fill-opacity:1;stroke:#000000;stroke-opacity:1;fill-rule:nonzero;stroke-linecap:square;stroke-linejoin:miter;stroke-width:5;stroke-miterlimit:10">
      <g
          id="8CC0A856">
         <g
             id="89765656">
            <path
                style="fill:#CCCCCC;stroke:none"
                id="8E016EE0"
                d="M0.707106781181,125.390670847 C48.7071067812,125.390670847 96.7071067812,125.390670847 144.707106781,125.390670847 C144.707106781,73.9444259001 117.260861834,26.4061351753 72.7071067812,0.683012701892 C48.7071067812,42.2522320835 24.7071067812,83.8214514652 0.707106781181,125.390670847
z"/>
            <path
                style="fill:#CCCCCC;stroke:none"
                id="9E016EE0"
                d="M144.707106781,125.390670847 C120.707106781,83.8214514652 96.7071067811,42.2522320836 72.7071067811,0.683012701919 C28.1533517279,26.4061351753 0.707106781191,73.9444259001 0.707106781181,125.390670847
C48.7071067812,125.390670847 96.7071067812,125.390670847 144.707106781,125.390670847 z"/>
            <path
                style="fill:#FFFFFF;stroke:none"
                id="AE016EE0"
                d="M126.707106781,125.390670847 C126.707106781,84.2813323844 106.652536402,45.7568611225 72.9777377614,22.1775132665"/>
            <polygon
                style="fill:#FFFFFF;stroke:none"
                id="BE016EE0"
                points="126.707106781,125.390670847 72.7071067812,20.9906708469 18.7071067812,125.390670847"/>
            <path
                style="fill:#FFFFFF;stroke:none"
                id="CE016EE0"
                d="M72.436475801,22.1775132664 C38.7616771601,45.7568611225 18.7071067812,84.2813323843 18.7071067812,125.390670847"/>
            <path
                style="fill:none;stroke-width:1"
                id="DE016EE0"
                d="M72.7071067811,0.683012701919 C28.1533517279,26.4061351753 0.707106781192,73.9444259001 0.707106781181,125.390670847"/>
            <path
                style="fill:none;stroke-width:1"
                id="EE016EE0"
                d="M89.4723422857,12.1426210132 C46.1745346378,33.2603728165 18.7071067812,77.2174460394 18.7071067812,125.390670847"/>
            <path
                style="fill:none;stroke-width:1"
                id="FE016EE0"
                d="M104.249594692,25.2548145536 C63.4301232483,41.7469515417 36.7071067812,81.3654527168 36.7071067812,125.390670847"/>
            <path
                style="fill:none;stroke-width:1"
                id="0F016EE0"
                d="M116.596964115,39.8931862096 C79.6671606296,52.035087799 54.7071067812,86.5160498238 54.7071067812,125.390670847"/>
            <path
                style="fill:none;stroke-width:1"
                id="1F016EE0"
                d="M125.829485919,55.9094832448 C94.4720399258,64.4291127603 72.7071067812,92.8964635738 72.7071067812,125.390670847"/>
            <path
                style="fill:none;stroke-width:1"
                id="2F016EE0"
                d="M134.218451815,72.419092458 C108.92969052,77.4264020344 90.7071067812,99.6109385544 90.7071067812,125.390670847"/>
            <path
                style="fill:none;stroke-width:1"
                id="3F016EE0"
                d="M139.572465168,89.7587265342 C121.856720946,92.3116042749 108.707106781,107.491934073 108.707106781,125.390670847"/>
            <path
                style="fill:none;stroke-width:1"
                id="4F016EE0"
                d="M142.451108577,107.390670847 C133.45377484,108.527298426 126.707106781,116.179891188 126.707106781,125.248735471"/>
            <path
                style="fill:none;stroke-width:1"
                id="5F016EE0"
                d="M144.707106781,125.390670847 C144.707106781,73.9444259001 117.260861834,26.4061351753 72.7071067812,0.683012701892"/>
            <path
                style="fill:none;stroke-width:1"
                id="6F016EE0"
                d="M126.707106781,125.390670847 C126.707106781,77.2174460394 99.2396789246,33.2603728165 55.9418712766,12.1426210131"/>
            <path
                style="fill:none;stroke-width:1"
                id="7F016EE0"
                d="M108.707106781,125.390670847 C108.707106781,81.3654527168 81.984090314,41.7469515417 41.1646188701,25.2548145536"/>
            <path
                style="fill:none;stroke-width:1"
                id="8F016EE0"
                d="M90.7071067812,125.390670847 C90.7071067812,86.5160498238 65.7470529328,52.0350877991 28.8172494473,39.8931862096"/>
            <path
                style="fill:none;stroke-width:1"
                id="9F016EE0"
                d="M72.7071067812,125.390670847 C72.7071067812,92.8964635738 50.9421736366,64.4291127604 19.5847276433,55.9094832448"/>
            <path
                style="fill:none;stroke-width:1"
                id="AF016EE0"
                d="M54.7071067812,125.390670847 C54.7071067812,99.6109385544 36.4845230428,77.4264020344 11.1957617471,72.419092458"/>
            <path
                style="fill:none;stroke-width:1"
                id="BF016EE0"
                d="M36.7071067812,125.390670847 C36.7071067812,107.491934073 23.5574926168,92.3116042749 5.841748394571,89.7587265342"/>
            <line
                style="fill:none;stroke-width:1"
                id="DF016EE0"
                x1="18.7071067812"
                y1="125.390670847"
                x2="18.7071067812"
                y2="161.390670847"/>
            <line
                style="fill:none;stroke-width:1"
                id="EF016EE0"
                x1="36.7071067812"
                y1="125.390670847"
                x2="36.7071067812"
                y2="161.390670847"/>
            <line
                style="fill:none;stroke-width:1"
                id="FF016EE0"
                x1="54.7071067812"
                y1="125.390670847"
                x2="54.7071067812"
                y2="161.390670847"/>
            <line
                style="fill:none;stroke-width:1"
                id="00116EE0"
                x1="72.7071067812"
                y1="125.390670847"
                x2="72.7071067812"
                y2="161.390670847"/>
            <line
                style="fill:none;stroke-width:1"
                id="10116EE0"
                x1="90.7071067812"
                y1="125.390670847"
                x2="90.7071067812"
                y2="161.390670847"/>
            <line
                style="fill:none;stroke-width:1"
                id="20116EE0"
                x1="108.707106781"
                y1="125.390670847"
                x2="108.707106781"
                y2="161.390670847"/>
            <line
                style="fill:none;stroke-width:1"
                id="30116EE0"
                x1="126.707106781"
                y1="125.390670847"
                x2="126.707106781"
                y2="161.390670847"/>
            <line
                style="fill:none;stroke-width:1"
                id="40116EE0"
                x1="18.7071067812"
                y1="143.390670847"
                x2="126.707106781"
                y2="143.390670847"/>
            <line
                style="fill:none;stroke-width:1"
                id="50116EE0"
                x1="18.7071067812"
                y1="125.390670847"
                x2="126.707106781"
                y2="125.390670847"/>
            <path
                style="stroke-width:1"
                id="60116EE0"
                d="M0.707106781181,125.390670847 C6.707106781181,125.390670847 12.7071067812,125.390670847 18.7071067812,125.390670847 C18.7071067812,115.44954535 10.6482322781,107.390670847 0.707106781186,107.390670847 C0.707106781185,113.390670847 0.707106781183,119.390670847 0.707106781181,125.390670847
z"/>
            <path
                style="stroke-width:1"
                id="70116EE0"
                d="M144.707106781,125.390670847 C144.707106781,119.390670847 144.707106781,113.390670847 144.707106781,107.390670847 C134.765981284,107.390670847 126.707106781,115.44954535 126.707106781,125.390670847 C132.707106781,125.390670847 138.707106781,125.390670847 144.707106781,125.390670847
z"/>
            <line
                style="fill:none;stroke-width:1"
                id="80116EE0"
                x1="18.7071067812"
                y1="161.390670847"
                x2="126.707106781"
                y2="161.390670847"/>
            <rect
                style="stroke-width:1"
                id="90116EE0"
                x="0.707106781181"
                y="125.390670847"
                width="18"
                height="36"/>
            <rect
                style="stroke-width:1"
                id="A0116EE0"
                x="126.707106781"
                y="125.390670847"
                width="18"
                height="36"/>
            <path
                style="fill:none;stroke-width:3"
                id="0A551646"
                d="M108.707106781,63.2491836294 C98.4989900835,69.1428425527 89.8939706585,77.4526132184 83.6476438579,87.4488256771"/>
            <path
                style="fill:none;stroke-width:3"
                id="E7DCEF46"
                d="M61.7665697044,87.448825677 C55.5202429038,77.4526132184 46.9152234789,69.1428425527 36.7071067812,63.2491836294"/>
         </g>
         <g
             id="66EA8656">
            <path
                style="fill:#CCCCCC;stroke:none"
                id="14EA8656"
                d="M198.707106781,125.390670847 C246.707106781,125.390670847 294.707106781,125.390670847 342.707106781,125.390670847 C342.707106781,73.9444259001 315.260861834,26.4061351753 270.707106781,0.683012701892 C246.707106781,42.2522320835 222.707106781,83.8214514652 198.707106781,125.390670847
z"/>
            <path
                style="fill:#CCCCCC;stroke:none"
                id="24EA8656"
                d="M342.707106781,125.390670847 C318.707106781,83.8214514652 294.707106781,42.2522320836 270.707106781,0.683012701919 C226.153351728,26.4061351753 198.707106781,73.9444259001 198.707106781,125.390670847 C246.707106781,125.390670847 294.707106781,125.390670847 342.707106781,125.390670847
z"/>
            <path
                style="fill:#FFFFFF;stroke:none"
                id="34EA8656"
                d="M324.707106781,125.390670847 C324.707106781,84.2813323844 304.652536402,45.7568611225 270.977737761,22.1775132665"/>
            <polygon
                style="fill:#FFFFFF;stroke:none"
                id="44EA8656"
                points="324.707106781,125.390670847 270.707106781,20.9906708469 216.707106781,125.390670847"/>
            <path
                style="fill:#FFFFFF;stroke:none"
                id="54EA8656"
                d="M270.436475801,22.1775132664 C236.76167716,45.7568611225 216.707106781,84.2813323843 216.707106781,125.390670847"/>
            <path
                style="fill:none;stroke-width:1"
                id="64EA8656"
                d="M270.707106781,0.683012701919 C226.153351728,26.4061351753 198.707106781,73.9444259001 198.707106781,125.390670847"/>
            <path
                style="fill:none;stroke-width:1"
                id="74EA8656"
                d="M287.472342286,12.1426210132 C244.174534638,33.2603728165 216.707106781,77.2174460394 216.707106781,125.390670847"/>
            <path
                style="fill:none;stroke-width:1"
                id="84EA8656"
                d="M302.249594692,25.2548145536 C261.430123248,41.7469515417 234.707106781,81.3654527168 234.707106781,125.390670847"/>
            <path
                style="fill:none;stroke-width:1"
                id="94EA8656"
                d="M314.596964115,39.8931862096 C277.66716063,52.035087799 252.707106781,86.5160498238 252.707106781,125.390670847"/>
            <path
                style="fill:none;stroke-width:1"
                id="A4EA8656"
                d="M323.829485919,55.9094832448 C292.472039926,64.4291127603 270.707106781,92.8964635738 270.707106781,125.390670847"/>
            <path
                style="fill:none;stroke-width:1"
                id="B4EA8656"
                d="M332.218451815,72.419092458 C306.92969052,77.4264020344 288.707106781,99.6109385544 288.707106781,125.390670847"/>
            <path
                style="fill:none;stroke-width:1"
                id="C4EA8656"
                d="M337.572465168,89.7587265342 C319.856720946,92.3116042749 306.707106781,107.491934073 306.707106781,125.390670847"/>
            <path
                style="fill:none;stroke-width:1"
                id="D4EA8656"
                d="M340.451108577,107.390670847 C331.45377484,108.527298426 324.707106781,116.179891188 324.707106781,125.248735471"/>
            <path
                style="fill:none;stroke-width:1"
                id="E4EA8656"
                d="M342.707106781,125.390670847 C342.707106781,73.9444259001 315.260861834,26.4061351753 270.707106781,0.683012701892"/>
            <path
                style="fill:none;stroke-width:1"
                id="F4EA8656"
                d="M324.707106781,125.390670847 C324.707106781,77.2174460394 297.239678925,33.2603728165 253.941871277,12.1426210131"/>
            <path
                style="fill:none;stroke-width:1"
                id="05EA8656"
                d="M306.707106781,125.390670847 C306.707106781,81.3654527168 279.984090314,41.7469515417 239.16461887,25.2548145536"/>
            <path
                style="fill:none;stroke-width:1"
                id="15EA8656"
                d="M288.707106781,125.390670847 C288.707106781,86.5160498238 263.747052933,52.0350877991 226.817249447,39.8931862096"/>
            <path
                style="fill:none;stroke-width:1"
                id="25EA8656"
                d="M270.707106781,125.390670847 C270.707106781,92.8964635738 248.942173637,64.4291127604 217.584727643,55.9094832448"/>
            <path
                style="fill:none;stroke-width:1"
                id="35EA8656"
                d="M252.707106781,125.390670847 C252.707106781,99.6109385544 234.484523043,77.4264020344 209.195761747,72.419092458"/>
            <path
                style="fill:none;stroke-width:1"
                id="45EA8656"
                d="M234.707106781,125.390670847 C234.707106781,107.491934073 221.557492617,92.3116042749 203.841748395,89.7587265342"/>
            <line
                style="fill:none;stroke-width:1"
                id="55EA8656"
                x1="216.707106781"
                y1="125.390670847"
                x2="216.707106781"
                y2="161.390670847"/>
            <line
                style="fill:none;stroke-width:1"
                id="65EA8656"
                x1="234.707106781"
                y1="125.390670847"
                x2="234.707106781"
                y2="161.390670847"/>
            <line
                style="fill:none;stroke-width:1"
                id="75EA8656"
                x1="252.707106781"
                y1="125.390670847"
                x2="252.707106781"
                y2="161.390670847"/>
            <line
                style="fill:none;stroke-width:1"
                id="85EA8656"
                x1="270.707106781"
                y1="125.390670847"
                x2="270.707106781"
                y2="161.390670847"/>
            <line
                style="fill:none;stroke-width:1"
                id="95EA8656"
                x1="288.707106781"
                y1="125.390670847"
                x2="288.707106781"
                y2="161.390670847"/>
            <line
                style="fill:none;stroke-width:1"
                id="A5EA8656"
                x1="306.707106781"
                y1="125.390670847"
                x2="306.707106781"
                y2="161.390670847"/>
            <line
                style="fill:none;stroke-width:1"
                id="B5EA8656"
                x1="324.707106781"
                y1="125.390670847"
                x2="324.707106781"
                y2="161.390670847"/>
            <line
                style="fill:none;stroke-width:1"
                id="C5EA8656"
                x1="216.707106781"
                y1="143.390670847"
                x2="324.707106781"
                y2="143.390670847"/>
            <line
                style="fill:none;stroke-width:1"
                id="D5EA8656"
                x1="216.707106781"
                y1="125.390670847"
                x2="324.707106781"
                y2="125.390670847"/>
            <path
                style="stroke-width:1"
                id="E5EA8656"
                d="M198.707106781,125.390670847 C204.707106781,125.390670847 210.707106781,125.390670847 216.707106781,125.390670847 C216.707106781,115.44954535 208.648232278,107.390670847 198.707106781,107.390670847 C198.707106781,113.390670847 198.707106781,119.390670847 198.707106781,125.390670847
z"/>
            <path
                style="stroke-width:1"
                id="06EA8656"
                d="M342.707106781,125.390670847 C342.707106781,119.390670847 342.707106781,113.390670847 342.707106781,107.390670847 C332.765981284,107.390670847 324.707106781,115.44954535 324.707106781,125.390670847 C330.707106781,125.390670847 336.707106781,125.390670847 342.707106781,125.390670847
z"/>
            <line
                style="fill:none;stroke-width:1"
                id="16EA8656"
                x1="216.707106781"
                y1="161.390670847"
                x2="324.707106781"
                y2="161.390670847"/>
            <rect
                style="stroke-width:1"
                id="26EA8656"
                x="198.707106781"
                y="125.390670847"
                width="18"
                height="36"/>
            <rect
                style="stroke-width:1"
                id="36EA8656"
                x="324.707106781"
                y="125.390670847"
                width="18"
                height="36"/>
            <path
                style="fill:none;stroke-width:3"
                id="46EA8656"
                d="M306.707106781,63.2491836294 C296.498990083,69.1428425527 287.893970659,77.4526132184 281.647643858,87.4488256771"/>
            <path
                style="fill:none;stroke-width:3"
                id="56EA8656"
                d="M259.766569704,87.448825677 C253.520242904,77.4526132184 244.915223479,69.1428425527 234.707106781,63.2491836294"/>
         </g>
         <g
             id="9908F656">
            <path
                style="fill:#CCCCCC;stroke:none"
                id="5708F656"
                d="M396.707106781,125.390670847 C444.707106781,125.390670847 492.707106781,125.390670847 540.707106781,125.390670847 C540.707106781,73.9444259001 513.260861834,26.4061351753 468.707106781,0.683012701892 C444.707106781,42.2522320835 420.707106781,83.8214514652 396.707106781,125.390670847
z"/>
            <path
                style="fill:#CCCCCC;stroke:none"
                id="6708F656"
                d="M540.707106781,125.390670847 C516.707106781,83.8214514652 492.707106781,42.2522320836 468.707106781,0.683012701919 C424.153351728,26.4061351753 396.707106781,73.9444259001 396.707106781,125.390670847 C444.707106781,125.390670847 492.707106781,125.390670847 540.707106781,125.390670847
z"/>
            <path
                style="fill:#FFFFFF;stroke:none"
                id="7708F656"
                d="M522.707106781,125.390670847 C522.707106781,84.2813323844 502.652536402,45.7568611225 468.977737761,22.1775132665"/>
            <polygon
                style="fill:#FFFFFF;stroke:none"
                id="8708F656"
                points="522.707106781,125.390670847 468.707106781,20.9906708469 414.707106781,125.390670847"/>
            <path
                style="fill:#FFFFFF;stroke:none"
                id="9708F656"
                d="M468.436475801,22.1775132664 C434.76167716,45.7568611225 414.707106781,84.2813323843 414.707106781,125.390670847"/>
            <path
                style="fill:none;stroke-width:1"
                id="A708F656"
                d="M468.707106781,0.683012701919 C424.153351728,26.4061351753 396.707106781,73.9444259001 396.707106781,125.390670847"/>
            <path
                style="fill:none;stroke-width:1"
                id="B708F656"
                d="M485.472342286,12.1426210132 C442.174534638,33.2603728165 414.707106781,77.2174460394 414.707106781,125.390670847"/>
            <path
                style="fill:none;stroke-width:1"
                id="C708F656"
                d="M500.249594692,25.2548145536 C459.430123248,41.7469515417 432.707106781,81.3654527168 432.707106781,125.390670847"/>
            <path
                style="fill:none;stroke-width:1"
                id="D708F656"
                d="M512.596964115,39.8931862096 C475.66716063,52.035087799 450.707106781,86.5160498238 450.707106781,125.390670847"/>
            <path
                style="fill:none;stroke-width:1"
                id="E708F656"
                d="M521.829485919,55.9094832448 C490.472039926,64.4291127603 468.707106781,92.8964635738 468.707106781,125.390670847"/>
            <path
                style="fill:none;stroke-width:1"
                id="F708F656"
                d="M530.218451815,72.419092458 C504.92969052,77.4264020344 486.707106781,99.6109385544 486.707106781,125.390670847"/>
            <path
                style="fill:none;stroke-width:1"
                id="0808F656"
                d="M535.572465168,89.7587265342 C517.856720946,92.3116042749 504.707106781,107.491934073 504.707106781,125.390670847"/>
            <path
                style="fill:none;stroke-width:1"
                id="1808F656"
                d="M538.451108577,107.390670847 C529.45377484,108.527298426 522.707106781,116.179891188 522.707106781,125.248735471"/>
            <path
                style="fill:none;stroke-width:1"
                id="2808F656"
                d="M540.707106781,125.390670847 C540.707106781,73.9444259001 513.260861834,26.4061351753 468.707106781,0.683012701892"/>
            <path
                style="fill:none;stroke-width:1"
                id="3808F656"
                d="M522.707106781,125.390670847 C522.707106781,77.2174460394 495.239678925,33.2603728165 451.941871277,12.1426210131"/>
            <path
                style="fill:none;stroke-width:1"
                id="4808F656"
                d="M504.707106781,125.390670847 C504.707106781,81.3654527168 477.984090314,41.7469515417 437.16461887,25.2548145536"/>
            <path
                style="fill:none;stroke-width:1"
                id="5808F656"
                d="M486.707106781,125.390670847 C486.707106781,86.5160498238 461.747052933,52.0350877991 424.817249447,39.8931862096"/>
            <path
                style="fill:none;stroke-width:1"
                id="6808F656"
                d="M468.707106781,125.390670847 C468.707106781,92.8964635738 446.942173637,64.4291127604 415.584727643,55.9094832448"/>
            <path
                style="fill:none;stroke-width:1"
                id="7808F656"
                d="M450.707106781,125.390670847 C450.707106781,99.6109385544 432.484523043,77.4264020344 407.195761747,72.419092458"/>
            <path
                style="fill:none;stroke-width:1"
                id="8808F656"
                d="M432.707106781,125.390670847 C432.707106781,107.491934073 419.557492617,92.3116042749 401.841748395,89.7587265342"/>
            <line
                style="fill:none;stroke-width:1"
                id="9808F656"
                x1="414.707106781"
                y1="125.390670847"
                x2="414.707106781"
                y2="161.390670847"/>
            <line
                style="fill:none;stroke-width:1"
                id="A808F656"
                x1="432.707106781"
                y1="125.390670847"
                x2="432.707106781"
                y2="161.390670847"/>
            <line
                style="fill:none;stroke-width:1"
                id="B808F656"
                x1="450.707106781"
                y1="125.390670847"
                x2="450.707106781"
                y2="161.390670847"/>
            <line
                style="fill:none;stroke-width:1"
                id="C808F656"
                x1="468.707106781"
                y1="125.390670847"
                x2="468.707106781"
                y2="161.390670847"/>
            <line
                style="fill:none;stroke-width:1"
                id="D808F656"
                x1="486.707106781"
                y1="125.390670847"
                x2="486.707106781"
                y2="161.390670847"/>
            <line
                style="fill:none;stroke-width:1"
                id="E808F656"
                x1="504.707106781"
                y1="125.390670847"
                x2="504.707106781"
                y2="161.390670847"/>
            <line
                style="fill:none;stroke-width:1"
                id="F808F656"
                x1="522.707106781"
                y1="125.390670847"
                x2="522.707106781"
                y2="161.390670847"/>
            <line
                style="fill:none;stroke-width:1"
                id="0908F656"
                x1="414.707106781"
                y1="143.390670847"
                x2="522.707106781"
                y2="143.390670847"/>
            <line
                style="fill:none;stroke-width:1"
                id="1908F656"
                x1="414.707106781"
                y1="125.390670847"
                x2="522.707106781"
                y2="125.390670847"/>
            <path
                style="stroke-width:1"
                id="2908F656"
                d="M396.707106781,125.390670847 C402.707106781,125.390670847 408.707106781,125.390670847 414.707106781,125.390670847 C414.707106781,115.44954535 406.648232278,107.390670847 396.707106781,107.390670847 C396.707106781,113.390670847 396.707106781,119.390670847 396.707106781,125.390670847
z"/>
            <path
                style="stroke-width:1"
                id="3908F656"
                d="M540.707106781,125.390670847 C540.707106781,119.390670847 540.707106781,113.390670847 540.707106781,107.390670847 C530.765981284,107.390670847 522.707106781,115.44954535 522.707106781,125.390670847 C528.707106781,125.390670847 534.707106781,125.390670847 540.707106781,125.390670847
z"/>
            <line
                style="fill:none;stroke-width:1"
                id="4908F656"
                x1="414.707106781"
                y1="161.390670847"
                x2="522.707106781"
                y2="161.390670847"/>
            <rect
                style="stroke-width:1"
                id="5908F656"
                x="396.707106781"
                y="125.390670847"
                width="18"
                height="36"/>
            <rect
                style="stroke-width:1"
                id="6908F656"
                x="522.707106781"
                y="125.390670847"
                width="18"
                height="36"/>
            <path
                style="fill:none;stroke-width:3"
                id="7908F656"
                d="M504.707106781,63.2491836294 C494.498990083,69.1428425527 485.893970659,77.4526132184 479.647643858,87.4488256771"/>
            <path
                style="fill:none;stroke-width:3"
                id="8908F656"
                d="M457.766569704,87.448825677 C451.520242904,77.4526132184 442.915223479,69.1428425527 432.707106781,63.2491836294"/>
         </g>
      </g>
      <g
          id="8866B856">
         <g
             id="C366B856">
            <path
                style="fill:#CCCCCC;stroke:none"
                id="7166B856"
                d="M0.707106781181,350.390670847 C48.7071067812,350.390670847 96.7071067812,350.390670847 144.707106781,350.390670847 C144.707106781,298.9444259 117.260861834,251.406135175 72.7071067812,225.683012702 C48.7071067812,267.252232084 24.7071067812,308.821451465 0.707106781181,350.390670847
z"/>
            <path
                style="fill:#CCCCCC;stroke:none"
                id="8166B856"
                d="M144.707106781,350.390670847 C120.707106781,308.821451465 96.7071067811,267.252232084 72.7071067811,225.683012702 C28.1533517279,251.406135175 0.707106781191,298.9444259 0.707106781181,350.390670847 C48.7071067812,350.390670847 96.7071067812,350.390670847 144.707106781,350.390670847
z"/>
            <path
                style="fill:#FFFFFF;stroke:none"
                id="A166B856"
                d="M126.707106781,350.390670847 C126.707106781,309.281332384 106.652536402,270.756861123 72.9777377614,247.177513266"/>
            <polygon
                style="fill:#FFFFFF;stroke:none"
                id="B166B856"
                points="126.707106781,350.390670847 72.7071067812,245.990670847 18.7071067812,350.390670847"/>
            <path
                style="fill:#FFFFFF;stroke:none"
                id="C166B856"
                d="M72.436475801,247.177513266 C38.7616771601,270.756861122 18.7071067812,309.281332384 18.7071067812,350.390670847"/>
            <path
                style="fill:none;stroke-width:1"
                id="D166B856"
                d="M72.7071067811,225.683012702 C28.1533517279,251.406135175 0.707106781192,298.9444259 0.707106781181,350.390670847"/>
            <path
                style="fill:none;stroke-width:1"
                id="E166B856"
                d="M89.4723422857,237.142621013 C46.1745346378,258.260372817 18.7071067812,302.217446039 18.7071067812,350.390670847"/>
            <path
                style="fill:none;stroke-width:1"
                id="F166B856"
                d="M104.249594692,250.254814554 C63.4301232483,266.746951542 36.7071067812,306.365452717 36.7071067812,350.390670847"/>
            <path
                style="fill:none;stroke-width:1"
                id="0266B856"
                d="M116.596964115,264.89318621 C79.6671606296,277.035087799 54.7071067812,311.516049824 54.7071067812,350.390670847"/>
            <path
                style="fill:none;stroke-width:1"
                id="1266B856"
                d="M125.829485919,280.909483245 C94.4720399258,289.42911276 72.7071067812,317.896463574 72.7071067812,350.390670847"/>
            <path
                style="fill:none;stroke-width:1"
                id="2266B856"
                d="M134.218451815,297.419092458 C108.92969052,302.426402034 90.7071067812,324.610938554 90.7071067812,350.390670847"/>
            <path
                style="fill:none;stroke-width:1"
                id="3266B856"
                d="M139.572465168,314.758726534 C121.856720946,317.311604275 108.707106781,332.491934073 108.707106781,350.390670847"/>
            <path
                style="fill:none;stroke-width:1"
                id="4266B856"
                d="M142.451108577,332.390670847 C133.45377484,333.527298426 126.707106781,341.179891188 126.707106781,350.248735471"/>
            <path
                style="fill:none;stroke-width:1"
                id="5266B856"
                d="M144.707106781,350.390670847 C144.707106781,298.9444259 117.260861834,251.406135175 72.7071067812,225.683012702"/>
            <path
                style="fill:none;stroke-width:1"
                id="6266B856"
                d="M126.707106781,350.390670847 C126.707106781,302.217446039 99.2396789246,258.260372817 55.9418712766,237.142621013"/>
            <path
                style="fill:none;stroke-width:1"
                id="7266B856"
                d="M108.707106781,350.390670847 C108.707106781,306.365452717 81.984090314,266.746951542 41.1646188701,250.254814554"/>
            <path
                style="fill:none;stroke-width:1"
                id="8266B856"
                d="M90.7071067812,350.390670847 C90.7071067812,311.516049824 65.7470529328,277.035087799 28.8172494473,264.89318621"/>
            <path
                style="fill:none;stroke-width:1"
                id="9266B856"
                d="M72.7071067812,350.390670847 C72.7071067812,317.896463574 50.9421736366,289.42911276 19.5847276433,280.909483245"/>
            <path
                style="fill:none;stroke-width:1"
                id="A266B856"
                d="M54.7071067812,350.390670847 C54.7071067812,324.610938554 36.4845230428,302.426402034 11.1957617471,297.419092458"/>
            <path
                style="fill:none;stroke-width:1"
                id="B266B856"
                d="M36.7071067812,350.390670847 C36.7071067812,332.491934073 23.5574926168,317.311604275 5.841748394571,314.758726534"/>
            <line
                style="fill:none;stroke-width:1"
                id="C266B856"
                x1="18.7071067812"
                y1="350.390670847"
                x2="18.7071067812"
                y2="386.390670847"/>
            <line
                style="fill:none;stroke-width:1"
                id="D266B856"
                x1="36.7071067812"
                y1="350.390670847"
                x2="36.7071067812"
                y2="386.390670847"/>
            <line
                style="fill:none;stroke-width:1"
                id="E266B856"
                x1="54.7071067812"
                y1="350.390670847"
                x2="54.7071067812"
                y2="386.390670847"/>
            <line
                style="fill:none;stroke-width:1"
                id="F266B856"
                x1="72.7071067812"
                y1="350.390670847"
                x2="72.7071067812"
                y2="386.390670847"/>
            <line
                style="fill:none;stroke-width:1"
                id="0366B856"
                x1="90.7071067812"
                y1="350.390670847"
                x2="90.7071067812"
                y2="386.390670847"/>
            <line
                style="fill:none;stroke-width:1"
                id="1366B856"
                x1="108.707106781"
                y1="350.390670847"
                x2="108.707106781"
                y2="386.390670847"/>
            <line
                style="fill:none;stroke-width:1"
                id="2366B856"
                x1="126.707106781"
                y1="350.390670847"
                x2="126.707106781"
                y2="386.390670847"/>
            <line
                style="fill:none;stroke-width:1"
                id="3366B856"
                x1="18.7071067812"
                y1="368.390670847"
                x2="126.707106781"
                y2="368.390670847"/>
            <line
                style="fill:none;stroke-width:1"
                id="4366B856"
                x1="18.7071067812"
                y1="350.390670847"
                x2="126.707106781"
                y2="350.390670847"/>
            <path
                style="stroke-width:1"
                id="5366B856"
                d="M0.707106781181,350.390670847 C6.707106781181,350.390670847 12.7071067812,350.390670847 18.7071067812,350.390670847 C18.7071067812,340.44954535 10.6482322781,332.390670847 0.707106781186,332.390670847 C0.707106781185,338.390670847 0.707106781183,344.390670847 0.707106781181,350.390670847
z"/>
            <path
                style="stroke-width:1"
                id="6366B856"
                d="M144.707106781,350.390670847 C144.707106781,344.390670847 144.707106781,338.390670847 144.707106781,332.390670847 C134.765981284,332.390670847 126.707106781,340.44954535 126.707106781,350.390670847 C132.707106781,350.390670847 138.707106781,350.390670847 144.707106781,350.390670847
z"/>
            <line
                style="fill:none;stroke-width:1"
                id="7366B856"
                x1="18.7071067812"
                y1="386.390670847"
                x2="126.707106781"
                y2="386.390670847"/>
            <rect
                style="stroke-width:1"
                id="8366B856"
                x="0.707106781181"
                y="350.390670847"
                width="18"
                height="36"/>
            <rect
                style="stroke-width:1"
                id="9366B856"
                x="126.707106781"
                y="350.390670847"
                width="18"
                height="36"/>
            <path
                style="fill:none;stroke-width:3"
                id="A366B856"
                d="M108.707106781,288.249183629 C98.4989900835,294.142842553 89.8939706585,302.452613218 83.6476438579,312.448825677"/>
            <path
                style="fill:none;stroke-width:3"
                id="B366B856"
                d="M61.7665697044,312.448825677 C55.5202429038,302.452613218 46.9152234789,294.142842553 36.7071067812,288.249183629"/>
         </g>
         <g
             id="1666B856">
            <path
                style="fill:#CCCCCC;stroke:none"
                id="D366B856"
                d="M198.707106781,350.390670847 C246.707106781,350.390670847 294.707106781,350.390670847 342.707106781,350.390670847 C342.707106781,298.9444259 315.260861834,251.406135175 270.707106781,225.683012702 C246.707106781,267.252232084 222.707106781,308.821451465 198.707106781,350.390670847
z"/>
            <path
                style="fill:#CCCCCC;stroke:none"
                id="E366B856"
                d="M342.707106781,350.390670847 C318.707106781,308.821451465 294.707106781,267.252232084 270.707106781,225.683012702 C226.153351728,251.406135175 198.707106781,298.9444259 198.707106781,350.390670847 C246.707106781,350.390670847 294.707106781,350.390670847 342.707106781,350.390670847
z"/>
            <path
                style="fill:#FFFFFF;stroke:none"
                id="F366B856"
                d="M324.707106781,350.390670847 C324.707106781,309.281332384 304.652536402,270.756861123 270.977737761,247.177513266"/>
            <polygon
                style="fill:#FFFFFF;stroke:none"
                id="0466B856"
                points="324.707106781,350.390670847 270.707106781,245.990670847 216.707106781,350.390670847"/>
            <path
                style="fill:#FFFFFF;stroke:none"
                id="1466B856"
                d="M270.436475801,247.177513266 C236.76167716,270.756861122 216.707106781,309.281332384 216.707106781,350.390670847"/>
            <path
                style="fill:none;stroke-width:1"
                id="2466B856"
                d="M270.707106781,225.683012702 C226.153351728,251.406135175 198.707106781,298.9444259 198.707106781,350.390670847"/>
            <path
                style="fill:none;stroke-width:1"
                id="3466B856"
                d="M287.472342286,237.142621013 C244.174534638,258.260372817 216.707106781,302.217446039 216.707106781,350.390670847"/>
            <path
                style="fill:none;stroke-width:1"
                id="4466B856"
                d="M302.249594692,250.254814554 C261.430123248,266.746951542 234.707106781,306.365452717 234.707106781,350.390670847"/>
            <path
                style="fill:none;stroke-width:1"
                id="5466B856"
                d="M314.596964115,264.89318621 C277.66716063,277.035087799 252.707106781,311.516049824 252.707106781,350.390670847"/>
            <path
                style="fill:none;stroke-width:1"
                id="6466B856"
                d="M323.829485919,280.909483245 C292.472039926,289.42911276 270.707106781,317.896463574 270.707106781,350.390670847"/>
            <path
                style="fill:none;stroke-width:1"
                id="7466B856"
                d="M332.218451815,297.419092458 C306.92969052,302.426402034 288.707106781,324.610938554 288.707106781,350.390670847"/>
            <path
                style="fill:none;stroke-width:1"
                id="8466B856"
                d="M337.572465168,314.758726534 C319.856720946,317.311604275 306.707106781,332.491934073 306.707106781,350.390670847"/>
            <path
                style="fill:none;stroke-width:1"
                id="9466B856"
                d="M340.451108577,332.390670847 C331.45377484,333.527298426 324.707106781,341.179891188 324.707106781,350.248735471"/>
            <path
                style="fill:none;stroke-width:1"
                id="A466B856"
                d="M342.707106781,350.390670847 C342.707106781,298.9444259 315.260861834,251.406135175 270.707106781,225.683012702"/>
            <path
                style="fill:none;stroke-width:1"
                id="B466B856"
                d="M324.707106781,350.390670847 C324.707106781,302.217446039 297.239678925,258.260372817 253.941871277,237.142621013"/>
            <path
                style="fill:none;stroke-width:1"
                id="C466B856"
                d="M306.707106781,350.390670847 C306.707106781,306.365452717 279.984090314,266.746951542 239.16461887,250.254814554"/>
            <path
                style="fill:none;stroke-width:1"
                id="D466B856"
                d="M288.707106781,350.390670847 C288.707106781,311.516049824 263.747052933,277.035087799 226.817249447,264.89318621"/>
            <path
                style="fill:none;stroke-width:1"
                id="E466B856"
                d="M270.707106781,350.390670847 C270.707106781,317.896463574 248.942173637,289.42911276 217.584727643,280.909483245"/>
            <path
                style="fill:none;stroke-width:1"
                id="F466B856"
                d="M252.707106781,350.390670847 C252.707106781,324.610938554 234.484523043,302.426402034 209.195761747,297.419092458"/>
            <path
                style="fill:none;stroke-width:1"
                id="0566B856"
                d="M234.707106781,350.390670847 C234.707106781,332.491934073 221.557492617,317.311604275 203.841748395,314.758726534"/>
            <line
                style="fill:none;stroke-width:1"
                id="1566B856"
                x1="216.707106781"
                y1="350.390670847"
                x2="216.707106781"
                y2="386.390670847"/>
            <line
                style="fill:none;stroke-width:1"
                id="2566B856"
                x1="234.707106781"
                y1="350.390670847"
                x2="234.707106781"
                y2="386.390670847"/>
            <line
                style="fill:none;stroke-width:1"
                id="3566B856"
                x1="252.707106781"
                y1="350.390670847"
                x2="252.707106781"
                y2="386.390670847"/>
            <line
                style="fill:none;stroke-width:1"
                id="4566B856"
                x1="270.707106781"
                y1="350.390670847"
                x2="270.707106781"
                y2="386.390670847"/>
            <line
                style="fill:none;stroke-width:1"
                id="5566B856"
                x1="288.707106781"
                y1="350.390670847"
                x2="288.707106781"
                y2="386.390670847"/>
            <line
                style="fill:none;stroke-width:1"
                id="6566B856"
                x1="306.707106781"
                y1="350.390670847"
                x2="306.707106781"
                y2="386.390670847"/>
            <line
                style="fill:none;stroke-width:1"
                id="7566B856"
                x1="324.707106781"
                y1="350.390670847"
                x2="324.707106781"
                y2="386.390670847"/>
            <line
                style="fill:none;stroke-width:1"
                id="8566B856"
                x1="216.707106781"
                y1="368.390670847"
                x2="324.707106781"
                y2="368.390670847"/>
            <line
                style="fill:none;stroke-width:1"
                id="9566B856"
                x1="216.707106781"
                y1="350.390670847"
                x2="324.707106781"
                y2="350.390670847"/>
            <path
                style="stroke-width:1"
                id="A566B856"
                d="M198.707106781,350.390670847 C204.707106781,350.390670847 210.707106781,350.390670847 216.707106781,350.390670847 C216.707106781,340.44954535 208.648232278,332.390670847 198.707106781,332.390670847 C198.707106781,338.390670847 198.707106781,344.390670847 198.707106781,350.390670847
z"/>
            <path
                style="stroke-width:1"
                id="B566B856"
                d="M342.707106781,350.390670847 C342.707106781,344.390670847 342.707106781,338.390670847 342.707106781,332.390670847 C332.765981284,332.390670847 324.707106781,340.44954535 324.707106781,350.390670847 C330.707106781,350.390670847 336.707106781,350.390670847 342.707106781,350.390670847
z"/>
            <line
                style="fill:none;stroke-width:1"
                id="C566B856"
                x1="216.707106781"
                y1="386.390670847"
                x2="324.707106781"
                y2="386.390670847"/>
            <rect
                style="stroke-width:1"
                id="D566B856"
                x="198.707106781"
                y="350.390670847"
                width="18"
                height="36"/>
            <rect
                style="stroke-width:1"
                id="E566B856"
                x="324.707106781"
                y="350.390670847"
                width="18"
                height="36"/>
            <path
                style="fill:none;stroke-width:3"
                id="F566B856"
                d="M306.707106781,288.249183629 C296.498990083,294.142842553 287.893970659,302.452613218 281.647643858,312.448825677"/>
            <path
                style="fill:none;stroke-width:3"
                id="0666B856"
                d="M259.766569704,312.448825677 C253.520242904,302.452613218 244.915223479,294.142842553 234.707106781,288.249183629"/>
         </g>
         <g
             id="7866B856">
            <path
                style="fill:#CCCCCC;stroke:none"
                id="2666B856"
                d="M396.707106781,350.390670847 C444.707106781,350.390670847 492.707106781,350.390670847 540.707106781,350.390670847 C540.707106781,298.9444259 513.260861834,251.406135175 468.707106781,225.683012702 C444.707106781,267.252232084 420.707106781,308.821451465 396.707106781,350.390670847
z"/>
            <path
                style="fill:#CCCCCC;stroke:none"
                id="3666B856"
                d="M540.707106781,350.390670847 C516.707106781,308.821451465 492.707106781,267.252232084 468.707106781,225.683012702 C424.153351728,251.406135175 396.707106781,298.9444259 396.707106781,350.390670847 C444.707106781,350.390670847 492.707106781,350.390670847 540.707106781,350.390670847
z"/>
            <path
                style="fill:#FFFFFF;stroke:none"
                id="4666B856"
                d="M522.707106781,350.390670847 C522.707106781,309.281332384 502.652536402,270.756861123 468.977737761,247.177513266"/>
            <polygon
                style="fill:#FFFFFF;stroke:none"
                id="5666B856"
                points="522.707106781,350.390670847 468.707106781,245.990670847 414.707106781,350.390670847"/>
            <path
                style="fill:#FFFFFF;stroke:none"
                id="6666B856"
                d="M468.436475801,247.177513266 C434.76167716,270.756861122 414.707106781,309.281332384 414.707106781,350.390670847"/>
            <path
                style="fill:none;stroke-width:1"
                id="7666B856"
                d="M468.707106781,225.683012702 C424.153351728,251.406135175 396.707106781,298.9444259 396.707106781,350.390670847"/>
            <path
                style="fill:none;stroke-width:1"
                id="8666B856"
                d="M485.472342286,237.142621013 C442.174534638,258.260372817 414.707106781,302.217446039 414.707106781,350.390670847"/>
            <path
                style="fill:none;stroke-width:1"
                id="9666B856"
                d="M500.249594692,250.254814554 C459.430123248,266.746951542 432.707106781,306.365452717 432.707106781,350.390670847"/>
            <path
                style="fill:none;stroke-width:1"
                id="A666B856"
                d="M512.596964115,264.89318621 C475.66716063,277.035087799 450.707106781,311.516049824 450.707106781,350.390670847"/>
            <path
                style="fill:none;stroke-width:1"
                id="B666B856"
                d="M521.829485919,280.909483245 C490.472039926,289.42911276 468.707106781,317.896463574 468.707106781,350.390670847"/>
            <path
                style="fill:none;stroke-width:1"
                id="C666B856"
                d="M530.218451815,297.419092458 C504.92969052,302.426402034 486.707106781,324.610938554 486.707106781,350.390670847"/>
            <path
                style="fill:none;stroke-width:1"
                id="D666B856"
                d="M535.572465168,314.758726534 C517.856720946,317.311604275 504.707106781,332.491934073 504.707106781,350.390670847"/>
            <path
                style="fill:none;stroke-width:1"
                id="E666B856"
                d="M538.451108577,332.390670847 C529.45377484,333.527298426 522.707106781,341.179891188 522.707106781,350.248735471"/>
            <path
                style="fill:none;stroke-width:1"
                id="F666B856"
                d="M540.707106781,350.390670847 C540.707106781,298.9444259 513.260861834,251.406135175 468.707106781,225.683012702"/>
            <path
                style="fill:none;stroke-width:1"
                id="0766B856"
                d="M522.707106781,350.390670847 C522.707106781,302.217446039 495.239678925,258.260372817 451.941871277,237.142621013"/>
            <path
                style="fill:none;stroke-width:1"
                id="1766B856"
                d="M504.707106781,350.390670847 C504.707106781,306.365452717 477.984090314,266.746951542 437.16461887,250.254814554"/>
            <path
                style="fill:none;stroke-width:1"
                id="2766B856"
                d="M486.707106781,350.390670847 C486.707106781,311.516049824 461.747052933,277.035087799 424.817249447,264.89318621"/>
            <path
                style="fill:none;stroke-width:1"
                id="3766B856"
                d="M468.707106781,350.390670847 C468.707106781,317.896463574 446.942173637,289.42911276 415.584727643,280.909483245"/>
            <path
                style="fill:none;stroke-width:1"
                id="4766B856"
                d="M450.707106781,350.390670847 C450.707106781,324.610938554 432.484523043,302.426402034 407.195761747,297.419092458"/>
            <path
                style="fill:none;stroke-width:1"
                id="5766B856"
                d="M432.707106781,350.390670847 C432.707106781,332.491934073 419.557492617,317.311604275 401.841748395,314.758726534"/>
            <line
                style="fill:none;stroke-width:1"
                id="6766B856"
                x1="414.707106781"
                y1="350.390670847"
                x2="414.707106781"
                y2="386.390670847"/>
            <line
                style="fill:none;stroke-width:1"
                id="7766B856"
                x1="432.707106781"
                y1="350.390670847"
                x2="432.707106781"
                y2="386.390670847"/>
            <line
                style="fill:none;stroke-width:1"
                id="8766B856"
                x1="450.707106781"
                y1="350.390670847"
                x2="450.707106781"
                y2="386.390670847"/>
            <line
                style="fill:none;stroke-width:1"
                id="9766B856"
                x1="468.707106781"
                y1="350.390670847"
                x2="468.707106781"
                y2="386.390670847"/>
            <line
                style="fill:none;stroke-width:1"
                id="B766B856"
                x1="486.707106781"
                y1="350.390670847"
                x2="486.707106781"
                y2="386.390670847"/>
            <line
                style="fill:none;stroke-width:1"
                id="C766B856"
                x1="504.707106781"
                y1="350.390670847"
                x2="504.707106781"
                y2="386.390670847"/>
            <line
                style="fill:none;stroke-width:1"
                id="D766B856"
                x1="522.707106781"
                y1="350.390670847"
                x2="522.707106781"
                y2="386.390670847"/>
            <line
                style="fill:none;stroke-width:1"
                id="E766B856"
                x1="414.707106781"
                y1="368.390670847"
                x2="522.707106781"
                y2="368.390670847"/>
            <line
                style="fill:none;stroke-width:1"
                id="F766B856"
                x1="414.707106781"
                y1="350.390670847"
                x2="522.707106781"
                y2="350.390670847"/>
            <path
                style="stroke-width:1"
                id="0866B856"
                d="M396.707106781,350.390670847 C402.707106781,350.390670847 408.707106781,350.390670847 414.707106781,350.390670847 C414.707106781,340.44954535 406.648232278,332.390670847 396.707106781,332.390670847 C396.707106781,338.390670847 396.707106781,344.390670847 396.707106781,350.390670847
z"/>
            <path
                style="stroke-width:1"
                id="1866B856"
                d="M540.707106781,350.390670847 C540.707106781,344.390670847 540.707106781,338.390670847 540.707106781,332.390670847 C530.765981284,332.390670847 522.707106781,340.44954535 522.707106781,350.390670847 C528.707106781,350.390670847 534.707106781,350.390670847 540.707106781,350.390670847
z"/>
            <line
                style="fill:none;stroke-width:1"
                id="2866B856"
                x1="414.707106781"
                y1="386.390670847"
                x2="522.707106781"
                y2="386.390670847"/>
            <rect
                style="stroke-width:1"
                id="3866B856"
                x="396.707106781"
                y="350.390670847"
                width="18"
                height="36"/>
            <rect
                style="stroke-width:1"
                id="4866B856"
                x="522.707106781"
                y="350.390670847"
                width="18"
                height="36"/>
            <path
                style="fill:none;stroke-width:3"
                id="5866B856"
                d="M504.707106781,288.249183629 C494.498990083,294.142842553 485.893970659,302.452613218 479.647643858,312.448825677"/>
            <path
                style="fill:none;stroke-width:3"
                id="6866B856"
                d="M457.766569704,312.448825677 C451.520242904,302.452613218 442.915223479,294.142842553 432.707106781,288.249183629"/>
         </g>
      </g>
      <g
          id="40226956">
         <g
             id="8B126956">
            <path
                style="fill:#CCCCCC;stroke:none"
                id="39126956"
                d="M0.707106781181,566.390670847 C48.7071067812,566.390670847 96.7071067812,566.390670847 144.707106781,566.390670847 C144.707106781,514.9444259 117.260861834,467.406135175 72.7071067812,441.683012702 C48.7071067812,483.252232084 24.7071067812,524.821451465 0.707106781181,566.390670847
z"/>
            <path
                style="fill:#CCCCCC;stroke:none"
                id="49126956"
                d="M144.707106781,566.390670847 C120.707106781,524.821451465 96.7071067811,483.252232084 72.7071067811,441.683012702 C28.1533517279,467.406135175 0.707106781191,514.9444259 0.707106781181,566.390670847 C48.7071067812,566.390670847 96.7071067812,566.390670847 144.707106781,566.390670847
z"/>
            <path
                style="fill:#FFFFFF;stroke:none"
                id="59126956"
                d="M126.707106781,566.390670847 C126.707106781,525.281332384 106.652536402,486.756861123 72.9777377614,463.177513266"/>
            <polygon
                style="fill:#FFFFFF;stroke:none"
                id="69126956"
                points="126.707106781,566.390670847 72.7071067812,461.990670847 18.7071067812,566.390670847"/>
            <path
                style="fill:#FFFFFF;stroke:none"
                id="79126956"
                d="M72.436475801,463.177513266 C38.7616771601,486.756861122 18.7071067812,525.281332384 18.7071067812,566.390670847"/>
            <path
                style="fill:none;stroke-width:1"
                id="89126956"
                d="M72.7071067811,441.683012702 C28.1533517279,467.406135175 0.707106781192,514.9444259 0.707106781181,566.390670847"/>
            <path
                style="fill:none;stroke-width:1"
                id="99126956"
                d="M89.4723422857,453.142621013 C46.1745346378,474.260372817 18.7071067812,518.217446039 18.7071067812,566.390670847"/>
            <path
                style="fill:none;stroke-width:1"
                id="A9126956"
                d="M104.249594692,466.254814554 C63.4301232483,482.746951542 36.7071067812,522.365452717 36.7071067812,566.390670847"/>
            <path
                style="fill:none;stroke-width:1"
                id="B9126956"
                d="M116.596964115,480.89318621 C79.6671606296,493.035087799 54.7071067812,527.516049824 54.7071067812,566.390670847"/>
            <path
                style="fill:none;stroke-width:1"
                id="C9126956"
                d="M125.829485919,496.909483245 C94.4720399258,505.42911276 72.7071067812,533.896463574 72.7071067812,566.390670847"/>
            <path
                style="fill:none;stroke-width:1"
                id="D9126956"
                d="M134.218451815,513.419092458 C108.92969052,518.426402034 90.7071067812,540.610938554 90.7071067812,566.390670847"/>
            <path
                style="fill:none;stroke-width:1"
                id="E9126956"
                d="M139.572465168,530.758726534 C121.856720946,533.311604275 108.707106781,548.491934073 108.707106781,566.390670847"/>
            <path
                style="fill:none;stroke-width:1"
                id="F9126956"
                d="M142.451108577,548.390670847 C133.45377484,549.527298426 126.707106781,557.179891188 126.707106781,566.248735471"/>
            <path
                style="fill:none;stroke-width:1"
                id="0A126956"
                d="M144.707106781,566.390670847 C144.707106781,514.9444259 117.260861834,467.406135175 72.7071067812,441.683012702"/>
            <path
                style="fill:none;stroke-width:1"
                id="1A126956"
                d="M126.707106781,566.390670847 C126.707106781,518.217446039 99.2396789246,474.260372817 55.9418712766,453.142621013"/>
            <path
                style="fill:none;stroke-width:1"
                id="2A126956"
                d="M108.707106781,566.390670847 C108.707106781,522.365452717 81.984090314,482.746951542 41.1646188701,466.254814554"/>
            <path
                style="fill:none;stroke-width:1"
                id="4A126956"
                d="M90.7071067812,566.390670847 C90.7071067812,527.516049824 65.7470529328,493.035087799 28.8172494473,480.89318621"/>
            <path
                style="fill:none;stroke-width:1"
                id="5A126956"
                d="M72.7071067812,566.390670847 C72.7071067812,533.896463574 50.9421736366,505.42911276 19.5847276433,496.909483245"/>
            <path
                style="fill:none;stroke-width:1"
                id="6A126956"
                d="M54.7071067812,566.390670847 C54.7071067812,540.610938554 36.4845230428,518.426402034 11.1957617471,513.419092458"/>
            <path
                style="fill:none;stroke-width:1"
                id="7A126956"
                d="M36.7071067812,566.390670847 C36.7071067812,548.491934073 23.5574926168,533.311604275 5.841748394571,530.758726534"/>
            <line
                style="fill:none;stroke-width:1"
                id="8A126956"
                x1="18.7071067812"
                y1="566.390670847"
                x2="18.7071067812"
                y2="602.390670847"/>
            <line
                style="fill:none;stroke-width:1"
                id="9A126956"
                x1="36.7071067812"
                y1="566.390670847"
                x2="36.7071067812"
                y2="602.390670847"/>
            <line
                style="fill:none;stroke-width:1"
                id="AA126956"
                x1="54.7071067812"
                y1="566.390670847"
                x2="54.7071067812"
                y2="602.390670847"/>
            <line
                style="fill:none;stroke-width:1"
                id="BA126956"
                x1="72.7071067812"
                y1="566.390670847"
                x2="72.7071067812"
                y2="602.390670847"/>
            <line
                style="fill:none;stroke-width:1"
                id="CA126956"
                x1="90.7071067812"
                y1="566.390670847"
                x2="90.7071067812"
                y2="602.390670847"/>
            <line
                style="fill:none;stroke-width:1"
                id="DA126956"
                x1="108.707106781"
                y1="566.390670847"
                x2="108.707106781"
                y2="602.390670847"/>
            <line
                style="fill:none;stroke-width:1"
                id="EA126956"
                x1="126.707106781"
                y1="566.390670847"
                x2="126.707106781"
                y2="602.390670847"/>
            <line
                style="fill:none;stroke-width:1"
                id="FA126956"
                x1="18.7071067812"
                y1="584.390670847"
                x2="126.707106781"
                y2="584.390670847"/>
            <line
                style="fill:none;stroke-width:1"
                id="0B126956"
                x1="18.7071067812"
                y1="566.390670847"
                x2="126.707106781"
                y2="566.390670847"/>
            <path
                style="stroke-width:1"
                id="1B126956"
                d="M0.707106781181,566.390670847 C6.707106781181,566.390670847 12.7071067812,566.390670847 18.7071067812,566.390670847 C18.7071067812,556.44954535 10.6482322781,548.390670847 0.707106781186,548.390670847 C0.707106781185,554.390670847 0.707106781183,560.390670847 0.707106781181,566.390670847
z"/>
            <path
                style="stroke-width:1"
                id="2B126956"
                d="M144.707106781,566.390670847 C144.707106781,560.390670847 144.707106781,554.390670847 144.707106781,548.390670847 C134.765981284,548.390670847 126.707106781,556.44954535 126.707106781,566.390670847 C132.707106781,566.390670847 138.707106781,566.390670847 144.707106781,566.390670847
z"/>
            <line
                style="fill:none;stroke-width:1"
                id="3B126956"
                x1="18.7071067812"
                y1="602.390670847"
                x2="126.707106781"
                y2="602.390670847"/>
            <rect
                style="stroke-width:1"
                id="4B126956"
                x="0.707106781181"
                y="566.390670847"
                width="18"
                height="36"/>
            <rect
                style="stroke-width:1"
                id="5B126956"
                x="126.707106781"
                y="566.390670847"
                width="18"
                height="36"/>
            <path
                style="fill:none;stroke-width:3"
                id="6B126956"
                d="M108.707106781,504.249183629 C98.4989900835,510.142842553 89.8939706585,518.452613218 83.6476438579,528.448825677"/>
            <path
                style="fill:none;stroke-width:3"
                id="7B126956"
                d="M61.7665697044,528.448825677 C55.5202429038,518.452613218 46.9152234789,510.142842553 36.7071067812,504.249183629"/>
         </g>
         <g
             id="DD126956">
            <path
                style="fill:#CCCCCC;stroke:none"
                id="9B126956"
                d="M198.707106781,566.390670847 C246.707106781,566.390670847 294.707106781,566.390670847 342.707106781,566.390670847 C342.707106781,514.9444259 315.260861834,467.406135175 270.707106781,441.683012702 C246.707106781,483.252232084 222.707106781,524.821451465 198.707106781,566.390670847
z"/>
            <path
                style="fill:#CCCCCC;stroke:none"
                id="AB126956"
                d="M342.707106781,566.390670847 C318.707106781,524.821451465 294.707106781,483.252232084 270.707106781,441.683012702 C226.153351728,467.406135175 198.707106781,514.9444259 198.707106781,566.390670847 C246.707106781,566.390670847 294.707106781,566.390670847 342.707106781,566.390670847
z"/>
            <path
                style="fill:#FFFFFF;stroke:none"
                id="BB126956"
                d="M324.707106781,566.390670847 C324.707106781,525.281332384 304.652536402,486.756861123 270.977737761,463.177513266"/>
            <polygon
                style="fill:#FFFFFF;stroke:none"
                id="CB126956"
                points="324.707106781,566.390670847 270.707106781,461.990670847 216.707106781,566.390670847"/>
            <path
                style="fill:#FFFFFF;stroke:none"
                id="DB126956"
                d="M270.436475801,463.177513266 C236.76167716,486.756861122 216.707106781,525.281332384 216.707106781,566.390670847"/>
            <path
                style="fill:none;stroke-width:1"
                id="EB126956"
                d="M270.707106781,441.683012702 C226.153351728,467.406135175 198.707106781,514.9444259 198.707106781,566.390670847"/>
            <path
                style="fill:none;stroke-width:1"
                id="FB126956"
                d="M287.472342286,453.142621013 C244.174534638,474.260372817 216.707106781,518.217446039 216.707106781,566.390670847"/>
            <path
                style="fill:none;stroke-width:1"
                id="0C126956"
                d="M302.249594692,466.254814554 C261.430123248,482.746951542 234.707106781,522.365452717 234.707106781,566.390670847"/>
            <path
                style="fill:none;stroke-width:1"
                id="1C126956"
                d="M314.596964115,480.89318621 C277.66716063,493.035087799 252.707106781,527.516049824 252.707106781,566.390670847"/>
            <path
                style="fill:none;stroke-width:1"
                id="2C126956"
                d="M323.829485919,496.909483245 C292.472039926,505.42911276 270.707106781,533.896463574 270.707106781,566.390670847"/>
            <path
                style="fill:none;stroke-width:1"
                id="3C126956"
                d="M332.218451815,513.419092458 C306.92969052,518.426402034 288.707106781,540.610938554 288.707106781,566.390670847"/>
            <path
                style="fill:none;stroke-width:1"
                id="4C126956"
                d="M337.572465168,530.758726534 C319.856720946,533.311604275 306.707106781,548.491934073 306.707106781,566.390670847"/>
            <path
                style="fill:none;stroke-width:1"
                id="5C126956"
                d="M340.451108577,548.390670847 C331.45377484,549.527298426 324.707106781,557.179891188 324.707106781,566.248735471"/>
            <path
                style="fill:none;stroke-width:1"
                id="6C126956"
                d="M342.707106781,566.390670847 C342.707106781,514.9444259 315.260861834,467.406135175 270.707106781,441.683012702"/>
            <path
                style="fill:none;stroke-width:1"
                id="7C126956"
                d="M324.707106781,566.390670847 C324.707106781,518.217446039 297.239678925,474.260372817 253.941871277,453.142621013"/>
            <path
                style="fill:none;stroke-width:1"
                id="8C126956"
                d="M306.707106781,566.390670847 C306.707106781,522.365452717 279.984090314,482.746951542 239.16461887,466.254814554"/>
            <path
                style="fill:none;stroke-width:1"
                id="9C126956"
                d="M288.707106781,566.390670847 C288.707106781,527.516049824 263.747052933,493.035087799 226.817249447,480.89318621"/>
            <path
                style="fill:none;stroke-width:1"
                id="AC126956"
                d="M270.707106781,566.390670847 C270.707106781,533.896463574 248.942173637,505.42911276 217.584727643,496.909483245"/>
            <path
                style="fill:none;stroke-width:1"
                id="BC126956"
                d="M252.707106781,566.390670847 C252.707106781,540.610938554 234.484523043,518.426402034 209.195761747,513.419092458"/>
            <path
                style="fill:none;stroke-width:1"
                id="CC126956"
                d="M234.707106781,566.390670847 C234.707106781,548.491934073 221.557492617,533.311604275 203.841748395,530.758726534"/>
            <line
                style="fill:none;stroke-width:1"
                id="DC126956"
                x1="216.707106781"
                y1="566.390670847"
                x2="216.707106781"
                y2="602.390670847"/>
            <line
                style="fill:none;stroke-width:1"
                id="EC126956"
                x1="234.707106781"
                y1="566.390670847"
                x2="234.707106781"
                y2="602.390670847"/>
            <line
                style="fill:none;stroke-width:1"
                id="FC126956"
                x1="252.707106781"
                y1="566.390670847"
                x2="252.707106781"
                y2="602.390670847"/>
            <line
                style="fill:none;stroke-width:1"
                id="0D126956"
                x1="270.707106781"
                y1="566.390670847"
                x2="270.707106781"
                y2="602.390670847"/>
            <line
                style="fill:none;stroke-width:1"
                id="1D126956"
                x1="288.707106781"
                y1="566.390670847"
                x2="288.707106781"
                y2="602.390670847"/>
            <line
                style="fill:none;stroke-width:1"
                id="2D126956"
                x1="306.707106781"
                y1="566.390670847"
                x2="306.707106781"
                y2="602.390670847"/>
            <line
                style="fill:none;stroke-width:1"
                id="3D126956"
                x1="324.707106781"
                y1="566.390670847"
                x2="324.707106781"
                y2="602.390670847"/>
            <line
                style="fill:none;stroke-width:1"
                id="4D126956"
                x1="216.707106781"
                y1="584.390670847"
                x2="324.707106781"
                y2="584.390670847"/>
            <line
                style="fill:none;stroke-width:1"
                id="5D126956"
                x1="216.707106781"
                y1="566.390670847"
                x2="324.707106781"
                y2="566.390670847"/>
            <path
                style="stroke-width:1"
                id="6D126956"
                d="M198.707106781,566.390670847 C204.707106781,566.390670847 210.707106781,566.390670847 216.707106781,566.390670847 C216.707106781,556.44954535 208.648232278,548.390670847 198.707106781,548.390670847 C198.707106781,554.390670847 198.707106781,560.390670847 198.707106781,566.390670847
z"/>
            <path
                style="stroke-width:1"
                id="7D126956"
                d="M342.707106781,566.390670847 C342.707106781,560.390670847 342.707106781,554.390670847 342.707106781,548.390670847 C332.765981284,548.390670847 324.707106781,556.44954535 324.707106781,566.390670847 C330.707106781,566.390670847 336.707106781,566.390670847 342.707106781,566.390670847
z"/>
            <line
                style="fill:none;stroke-width:1"
                id="8D126956"
                x1="216.707106781"
                y1="602.390670847"
                x2="324.707106781"
                y2="602.390670847"/>
            <rect
                style="stroke-width:1"
                id="9D126956"
                x="198.707106781"
                y="566.390670847"
                width="18"
                height="36"/>
            <rect
                style="stroke-width:1"
                id="AD126956"
                x="324.707106781"
                y="566.390670847"
                width="18"
                height="36"/>
            <path
                style="fill:none;stroke-width:3"
                id="BD126956"
                d="M306.707106781,504.249183629 C296.498990083,510.142842553 287.893970659,518.452613218 281.647643858,528.448825677"/>
            <path
                style="fill:none;stroke-width:3"
                id="CD126956"
                d="M259.766569704,528.448825677 C253.520242904,518.452613218 244.915223479,510.142842553 234.707106781,504.249183629"/>
         </g>
         <g
             id="30226956">
            <path
                style="fill:#CCCCCC;stroke:none"
                id="ED126956"
                d="M396.707106781,566.390670847 C444.707106781,566.390670847 492.707106781,566.390670847 540.707106781,566.390670847 C540.707106781,514.9444259 513.260861834,467.406135175 468.707106781,441.683012702 C444.707106781,483.252232084 420.707106781,524.821451465 396.707106781,566.390670847
z"/>
            <path
                style="fill:#CCCCCC;stroke:none"
                id="FD126956"
                d="M540.707106781,566.390670847 C516.707106781,524.821451465 492.707106781,483.252232084 468.707106781,441.683012702 C424.153351728,467.406135175 396.707106781,514.9444259 396.707106781,566.390670847 C444.707106781,566.390670847 492.707106781,566.390670847 540.707106781,566.390670847
z"/>
            <path
                style="fill:#FFFFFF;stroke:none"
                id="0E126956"
                d="M522.707106781,566.390670847 C522.707106781,525.281332384 502.652536402,486.756861123 468.977737761,463.177513266"/>
            <polygon
                style="fill:#FFFFFF;stroke:none"
                id="1E126956"
                points="522.707106781,566.390670847 468.707106781,461.990670847 414.707106781,566.390670847"/>
            <path
                style="fill:#FFFFFF;stroke:none"
                id="2E126956"
                d="M468.436475801,463.177513266 C434.76167716,486.756861122 414.707106781,525.281332384 414.707106781,566.390670847"/>
            <path
                style="fill:none;stroke-width:1"
                id="3E126956"
                d="M468.707106781,441.683012702 C424.153351728,467.406135175 396.707106781,514.9444259 396.707106781,566.390670847"/>
            <path
                style="fill:none;stroke-width:1"
                id="4E126956"
                d="M485.472342286,453.142621013 C442.174534638,474.260372817 414.707106781,518.217446039 414.707106781,566.390670847"/>
            <path
                style="fill:none;stroke-width:1"
                id="5E126956"
                d="M500.249594692,466.254814554 C459.430123248,482.746951542 432.707106781,522.365452717 432.707106781,566.390670847"/>
            <path
                style="fill:none;stroke-width:1"
                id="6E126956"
                d="M512.596964115,480.89318621 C475.66716063,493.035087799 450.707106781,527.516049824 450.707106781,566.390670847"/>
            <path
                style="fill:none;stroke-width:1"
                id="7E126956"
                d="M521.829485919,496.909483245 C490.472039926,505.42911276 468.707106781,533.896463574 468.707106781,566.390670847"/>
            <path
                style="fill:none;stroke-width:1"
                id="8E126956"
                d="M530.218451815,513.419092458 C504.92969052,518.426402034 486.707106781,540.610938554 486.707106781,566.390670847"/>
            <path
                style="fill:none;stroke-width:1"
                id="9E126956"
                d="M535.572465168,530.758726534 C517.856720946,533.311604275 504.707106781,548.491934073 504.707106781,566.390670847"/>
            <path
                style="fill:none;stroke-width:1"
                id="BE126956"
                d="M538.451108577,548.390670847 C529.45377484,549.527298426 522.707106781,557.179891188 522.707106781,566.248735471"/>
            <path
                style="fill:none;stroke-width:1"
                id="CE126956"
                d="M540.707106781,566.390670847 C540.707106781,514.9444259 513.260861834,467.406135175 468.707106781,441.683012702"/>
            <path
                style="fill:none;stroke-width:1"
                id="DE126956"
                d="M522.707106781,566.390670847 C522.707106781,518.217446039 495.239678925,474.260372817 451.941871277,453.142621013"/>
            <path
                style="fill:none;stroke-width:1"
                id="EE126956"
                d="M504.707106781,566.390670847 C504.707106781,522.365452717 477.984090314,482.746951542 437.16461887,466.254814554"/>
            <path
                style="fill:none;stroke-width:1"
                id="FE126956"
                d="M486.707106781,566.390670847 C486.707106781,527.516049824 461.747052933,493.035087799 424.817249447,480.89318621"/>
            <path
                style="fill:none;stroke-width:1"
                id="0F126956"
                d="M468.707106781,566.390670847 C468.707106781,533.896463574 446.942173637,505.42911276 415.584727643,496.909483245"/>
            <path
                style="fill:none;stroke-width:1"
                id="1F126956"
                d="M450.707106781,566.390670847 C450.707106781,540.610938554 432.484523043,518.426402034 407.195761747,513.419092458"/>
            <path
                style="fill:none;stroke-width:1"
                id="2F126956"
                d="M432.707106781,566.390670847 C432.707106781,548.491934073 419.557492617,533.311604275 401.841748395,530.758726534"/>
            <line
                style="fill:none;stroke-width:1"
                id="3F126956"
                x1="414.707106781"
                y1="566.390670847"
                x2="414.707106781"
                y2="602.390670847"/>
            <line
                style="fill:none;stroke-width:1"
                id="4F126956"
                x1="432.707106781"
                y1="566.390670847"
                x2="432.707106781"
                y2="602.390670847"/>
            <line
                style="fill:none;stroke-width:1"
                id="5F126956"
                x1="450.707106781"
                y1="566.390670847"
                x2="450.707106781"
                y2="602.390670847"/>
            <line
                style="fill:none;stroke-width:1"
                id="6F126956"
                x1="468.707106781"
                y1="566.390670847"
                x2="468.707106781"
                y2="602.390670847"/>
            <line
                style="fill:none;stroke-width:1"
                id="7F126956"
                x1="486.707106781"
                y1="566.390670847"
                x2="486.707106781"
                y2="602.390670847"/>
            <line
                style="fill:none;stroke-width:1"
                id="8F126956"
                x1="504.707106781"
                y1="566.390670847"
                x2="504.707106781"
                y2="602.390670847"/>
            <line
                style="fill:none;stroke-width:1"
                id="9F126956"
                x1="522.707106781"
                y1="566.390670847"
                x2="522.707106781"
                y2="602.390670847"/>
            <line
                style="fill:none;stroke-width:1"
                id="AF126956"
                x1="414.707106781"
                y1="584.390670847"
                x2="522.707106781"
                y2="584.390670847"/>
            <line
                style="fill:none;stroke-width:1"
                id="BF126956"
                x1="414.707106781"
                y1="566.390670847"
                x2="522.707106781"
                y2="566.390670847"/>
            <path
                style="stroke-width:1"
                id="CF126956"
                d="M396.707106781,566.390670847 C402.707106781,566.390670847 408.707106781,566.390670847 414.707106781,566.390670847 C414.707106781,556.44954535 406.648232278,548.390670847 396.707106781,548.390670847 C396.707106781,554.390670847 396.707106781,560.390670847 396.707106781,566.390670847
z"/>
            <path
                style="stroke-width:1"
                id="DF126956"
                d="M540.707106781,566.390670847 C540.707106781,560.390670847 540.707106781,554.390670847 540.707106781,548.390670847 C530.765981284,548.390670847 522.707106781,556.44954535 522.707106781,566.390670847 C528.707106781,566.390670847 534.707106781,566.390670847 540.707106781,566.390670847
z"/>
            <line
                style="fill:none;stroke-width:1"
                id="EF126956"
                x1="414.707106781"
                y1="602.390670847"
                x2="522.707106781"
                y2="602.390670847"/>
            <rect
                style="stroke-width:1"
                id="FF126956"
                x="396.707106781"
                y="566.390670847"
                width="18"
                height="36"/>
            <rect
                style="stroke-width:1"
                id="00226956"
                x="522.707106781"
                y="566.390670847"
                width="18"
                height="36"/>
            <path
                style="fill:none;stroke-width:3"
                id="10226956"
                d="M504.707106781,504.249183629 C494.498990083,510.142842553 485.893970659,518.452613218 479.647643858,528.448825677"/>
            <path
                style="fill:none;stroke-width:3"
                id="20226956"
                d="M457.766569704,528.448825677 C451.520242904,518.452613218 442.915223479,510.142842553 432.707106781,504.249183629"/>
         </g>
      </g>
   </g>
</svg>
