<?xml version="1.0" encoding="utf-8"?>
<!-- Generator: Adobe Illustrator 26.0.0, SVG Export Plug-In . SVG Version: 6.00 Build 0)  -->
<svg version="1.1"
	 id="svg8" inkscape:version="0.92.5 (2060ec1f9f, 2020-04-08)" sodipodi:docname="pentominos-20.svg" xmlns:cc="http://creativecommons.org/ns#" xmlns:dc="http://purl.org/dc/elements/1.1/" xmlns:inkscape="http://www.inkscape.org/namespaces/inkscape" xmlns:rdf="http://www.w3.org/1999/02/22-rdf-syntax-ns#" xmlns:sodipodi="http://sodipodi.sourceforge.net/DTD/sodipodi-0.dtd" xmlns:svg="http://www.w3.org/2000/svg"
	 xmlns="http://www.w3.org/2000/svg" xmlns:xlink="http://www.w3.org/1999/xlink" x="0px" y="0px" viewBox="0 0 57.26 57.26"
	 style="enable-background:new 0 0 57.26 57.26;" xml:space="preserve">
<style type="text/css">
	.st0{fill:none;stroke:#FF00FF;stroke-width:0.75;stroke-linecap:round;stroke-miterlimit:11.3386;}
	.st1{fill:none;stroke:#0000B8;stroke-width:0.75;stroke-linecap:round;stroke-miterlimit:11.3386;}
	.st2{fill:none;stroke:#57E6FF;stroke-width:0.75;stroke-linecap:round;stroke-miterlimit:11.3386;stroke-opacity:0.9412;}
	.st3{fill:none;stroke:#FF6D01;stroke-width:0.75;stroke-linecap:round;stroke-miterlimit:11.3386;}
	.st4{fill:none;stroke:#000000;stroke-width:0.3543;stroke-linecap:round;stroke-miterlimit:11.3386;}
	.st5{font-family:'Helvetica';}
	.st6{font-size:8px;}
	.st7{enable-background:new    ;}
	.st8{fill:none;}
</style>
<sodipodi:namedview  bordercolor="#666666" borderopacity="1.0" fit-margin-bottom="0" fit-margin-left="0" fit-margin-right="0" fit-margin-top="0" id="base" inkscape:current-layer="layer1" inkscape:cx="-205.63479" inkscape:cy="-11.442068" inkscape:document-units="mm" inkscape:guide-bbox="true" inkscape:pageopacity="0.0" inkscape:pageshadow="2" inkscape:window-height="979" inkscape:window-maximized="1" inkscape:window-width="1920" inkscape:window-x="0" inkscape:window-y="36" inkscape:zoom="1.979899" pagecolor="#ffffff" showgrid="true" showguides="true">
	<inkscape:grid  id="grid815" originx="-26.324157" originy="-46.167908" type="xygrid"></inkscape:grid>
</sodipodi:namedview>
<g id="flowRoot3053">
</g>
<path id="path819-5-9-7-1-94" inkscape:connector-curvature="0" class="st0" d="M17.38,11.75V23"/>
<path id="path819-5-9-7-42" inkscape:connector-curvature="0" class="st0" d="M17.38,11.75h11.25"/>
<path id="path819-5-9-7-06" inkscape:connector-curvature="0" class="st0" d="M28.63,11.75h11.25"/>
<path id="path819-5-9-3-595" inkscape:connector-curvature="0" class="st1" d="M39.88,11.75V23"/>
<path id="path819-5-8-61" inkscape:connector-curvature="0" class="st2" d="M17.38,23v11.25"/>
<path id="path819-5-8-14" inkscape:connector-curvature="0" class="st2" d="M39.88,23v11.25"/>
<path id="path819-8-37" inkscape:connector-curvature="0" class="st3" d="M28.63,34.25h11.25"/>
<path id="path819-5-9-7-1-27" inkscape:connector-curvature="0" class="st0" d="M28.63,34.25V45.5"/>
<path id="path819-5-33" inkscape:connector-curvature="0" class="st2" d="M17.38,45.5h11.25"/>
<path id="path819-5-9-3-924" inkscape:connector-curvature="0" class="st1" d="M17.38,34.25V45.5"/>
<path id="path819-5-9-7-1-4-6-44" inkscape:connector-curvature="0" class="st4" d="M28.63,34.25H17.38"/>
<path id="path819-5-9-7-1-4-6-99" inkscape:connector-curvature="0" class="st4" d="M28.63,23H17.38"/>
<path id="path819-5-9-7-1-4-6-38" inkscape:connector-curvature="0" class="st4" d="M39.88,23H28.63"/>
<path id="path819-5-9-7-1-4-38-32" inkscape:connector-curvature="0" class="st4" d="M28.63,23v11.25"/>
<path id="path819-5-9-7-1-4-38-95" inkscape:connector-curvature="0" class="st4" d="M28.63,11.75V23"/>
<text transform="matrix(1 0 0 1 20.4026 20.291)" class="st5 st6">K</text>
<text transform="matrix(1 0 0 1 31.4294 20.291)" class="st5 st6">R</text>
<text transform="matrix(1 0 0 1 20.9014 31.541)" class="st5 st6">1</text>
<text transform="matrix(1 0 0 1 20.4026 42.791)" class="st5 st6">Y</text>
<g class="st7">
	<path d="M36.2,28.62c0,1.89-0.7,2.93-1.93,2.93c-1.08,0-1.82-1.02-1.84-2.85c0-1.86,0.8-2.89,1.93-2.89
		C35.54,25.8,36.2,26.85,36.2,28.62z M35.09,26.82c-0.17-0.27-0.43-0.44-0.77-0.44c-0.7,0-1.15,0.9-1.16,2.26
		c0,0.54,0.07,1,0.21,1.37L35.09,26.82z M33.57,30.55c0.19,0.27,0.44,0.42,0.73,0.42c0.78,0,1.17-0.9,1.17-2.32
		c0-0.5-0.06-0.94-0.18-1.31L33.57,30.55z"/>
</g>
<rect x="28.69" y="23.05" class="st8" width="11.25" height="11.25"/>
</svg>
