<?xml version="1.0" encoding="utf-8"?>
<!-- Generator: Adobe Illustrator 26.0.0, SVG Export Plug-In . SVG Version: 6.00 Build 0)  -->
<svg version="1.1"
	 id="svg8" inkscape:version="0.92.5 (2060ec1f9f, 2020-04-08)" sodipodi:docname="pentominos-23.svg" xmlns:cc="http://creativecommons.org/ns#" xmlns:dc="http://purl.org/dc/elements/1.1/" xmlns:inkscape="http://www.inkscape.org/namespaces/inkscape" xmlns:rdf="http://www.w3.org/1999/02/22-rdf-syntax-ns#" xmlns:sodipodi="http://sodipodi.sourceforge.net/DTD/sodipodi-0.dtd" xmlns:svg="http://www.w3.org/2000/svg"
	 xmlns="http://www.w3.org/2000/svg" xmlns:xlink="http://www.w3.org/1999/xlink" x="0px" y="0px" viewBox="0 0 57.26 57.26"
	 style="enable-background:new 0 0 57.26 57.26;" xml:space="preserve">
<style type="text/css">
	.st0{fill:none;stroke:#FF6D01;stroke-width:0.75;stroke-linecap:round;stroke-miterlimit:11.3386;}
	.st1{fill:none;stroke:#0000B8;stroke-width:0.75;stroke-linecap:round;stroke-miterlimit:11.3386;}
	.st2{fill:none;stroke:#57E6FF;stroke-width:0.75;stroke-linecap:round;stroke-miterlimit:11.3386;stroke-opacity:0.9412;}
	.st3{fill:none;stroke:#FF00FF;stroke-width:0.75;stroke-linecap:round;stroke-miterlimit:11.3386;}
	.st4{fill:none;stroke:#000000;stroke-width:0.3543;stroke-linecap:round;stroke-miterlimit:11.3386;}
	.st5{font-family:'Helvetica';}
	.st6{font-size:8px;}
	.st7{enable-background:new    ;}
	.st8{fill:none;}
</style>
<sodipodi:namedview  bordercolor="#666666" borderopacity="1.0" fit-margin-bottom="0" fit-margin-left="0" fit-margin-right="0" fit-margin-top="0" id="base" inkscape:current-layer="layer1" inkscape:cx="-205.63478" inkscape:cy="134.57319" inkscape:document-units="mm" inkscape:guide-bbox="true" inkscape:pageopacity="0.0" inkscape:pageshadow="2" inkscape:window-height="979" inkscape:window-maximized="1" inkscape:window-width="1920" inkscape:window-x="0" inkscape:window-y="36" inkscape:zoom="1.979899" pagecolor="#ffffff" showgrid="true" showguides="true">
	<inkscape:grid  id="grid815" originx="-26.324156" originy="-34.261654" type="xygrid"></inkscape:grid>
</sodipodi:namedview>
<g id="flowRoot3053">
</g>
<path id="path819-8-29" inkscape:connector-curvature="0" class="st0" d="M11.75,17.38H23"/>
<path id="path819-5-9-73" inkscape:connector-curvature="0" class="st1" d="M23,17.38h11.25"/>
<path id="path819-5-8-80" inkscape:connector-curvature="0" class="st2" d="M11.75,17.38v11.25"/>
<path id="path819-5-9-7-9" inkscape:connector-curvature="0" class="st3" d="M11.75,39.88H23"/>
<path id="path819-5-9-7-23" inkscape:connector-curvature="0" class="st3" d="M23,39.88h11.25"/>
<path id="path819-5-9-8-1" inkscape:connector-curvature="0" class="st1" d="M34.25,39.88H45.5"/>
<path id="path819-8-8-87" inkscape:connector-curvature="0" class="st0" d="M45.5,28.63v11.25"/>
<path id="path819-5-9-7-1-416" inkscape:connector-curvature="0" class="st1" d="M11.75,28.63v11.25"/>
<path id="path819-5-9-7-1-38" inkscape:connector-curvature="0" class="st3" d="M34.25,17.38v11.25"/>
<path id="path819-8-55" inkscape:connector-curvature="0" class="st0" d="M34.25,28.63H45.5"/>
<path id="path819-5-9-7-1-4-38-01" inkscape:connector-curvature="0" class="st4" d="M23,17.38v11.25"/>
<path id="path819-5-9-7-1-4-38-26" inkscape:connector-curvature="0" class="st4" d="M23,28.63v11.25"/>
<path id="path819-5-9-7-1-4-38-485" inkscape:connector-curvature="0" class="st4" d="M34.25,28.63v11.25"/>
<path id="path819-5-9-7-1-4-6-62" inkscape:connector-curvature="0" class="st4" d="M34.25,28.63H23"/>
<path id="path819-5-9-7-1-4-6-52" inkscape:connector-curvature="0" class="st4" d="M23,28.63H11.75"/>
<text transform="matrix(1 0 0 1 14.2686 25.918)" class="st5 st6">O</text>
<text transform="matrix(1 0 0 1 15.2764 37.168)" class="st5 st6">8</text>
<text transform="matrix(1 0 0 1 26.5264 37.168)" class="st5 st6">2</text>
<g class="st7">
	<path d="M41.76,34.19c0,1.89-0.7,2.93-1.93,2.93c-1.08,0-1.82-1.02-1.84-2.85c0-1.86,0.8-2.89,1.93-2.89
		C41.1,31.38,41.76,32.43,41.76,34.19z M40.65,32.4c-0.17-0.27-0.43-0.44-0.77-0.44c-0.7,0-1.15,0.9-1.16,2.26
		c0,0.54,0.07,1,0.21,1.37L40.65,32.4z M39.13,36.12c0.19,0.27,0.44,0.42,0.73,0.42c0.78,0,1.17-0.9,1.17-2.32
		c0-0.5-0.06-0.94-0.18-1.31L39.13,36.12z"/>
</g>
<text transform="matrix(1 0 0 1 26.6936 25.918)" class="st5 st6">J</text>
<rect x="34.25" y="28.63" class="st8" width="11.25" height="11.25"/>
</svg>
