<svg id="Layer_1" data-name="Layer 1" xmlns="http://www.w3.org/2000/svg" viewBox="0 0 40.28 40.28"><defs><style>.cls-1{fill:#fff;}.cls-2{fill:#42ade2;}.cls-3{fill:#333;}.cls-4{fill:#b0bdc6;}.cls-5{fill:#ed4c5c;}.cls-6{fill:#aa1d39;}.cls-7{fill:#5b0617;}.cls-8{fill:#4b4d4f;}.cls-9{fill:#898a90;}</style></defs><circle class="cls-1" cx="20.14" cy="20.14" r="20.14"/><path class="cls-2" d="M28.74,13.53A17.62,17.62,0,0,1,29.87,20a17.45,17.45,0,0,1-1.13,6.51c-.17-2.16-.07-4.35-.06-6.52S28.59,15.69,28.74,13.53Z"/><path class="cls-2" d="M30.39,10.27A32.65,32.65,0,0,1,31.78,20a32.61,32.61,0,0,1-1.39,9.77c0-3.2.19-6.4.2-9.59S30.41,13.59,30.39,10.27Z"/><polygon class="cls-3" points="14.78 27.96 11.65 27.96 17.28 22.7 20.41 22.7 14.78 27.96"/><path class="cls-4" d="M11,17.38c-.61.06-1.17.08-1.65.08A5.5,5.5,0,0,0,8.5,20a5.45,5.45,0,0,0,.8,2.58c.48,0,1,0,1.65.08A6.55,6.55,0,0,1,10.28,20,6.65,6.65,0,0,1,11,17.38Z"/><path class="cls-5" d="M24.12,9.55s-6.21,7-11.48,7.66A7.37,7.37,0,0,0,12,20a7.38,7.38,0,0,0,.66,2.84c5.27.65,11.46,7.63,11.46,7.63Z"/><path class="cls-3" d="M12.64,17.21c-.6.07-1.16.13-1.69.17A6.65,6.65,0,0,0,10.28,20,6.55,6.55,0,0,0,11,22.7c.53,0,1.1.11,1.69.18A7.38,7.38,0,0,1,12,20,7.37,7.37,0,0,1,12.64,17.21Z"/><path class="cls-6" d="M24.75,9.18C26.1,9.18,27.19,14,27.19,20S26.1,30.89,24.75,30.89,22.31,26,22.31,20,23.4,9.18,24.75,9.18Z"/><path class="cls-7" d="M24.75,30.9C23.4,30.9,22.31,26,22.31,20c2.06-1.54,4.8,1.89,4.8,1.89C22.84,24.26,24.75,30.9,24.75,30.9Z"/><path class="cls-3" d="M22.41,17.13s-.1,1-.1,2.9.1,2.91.1,2.91l4.78-1V18.15Z"/><path class="cls-8" d="M22.35,18.05s0,.7,0,2,0,2,0,2l4.84-.7V18.75Z"/><ellipse class="cls-5" cx="27.19" cy="20.03" rx="0.61" ry="1.88"/><rect class="cls-9" x="11.65" y="18.58" width="3.14" height="9.39"/><ellipse class="cls-1" cx="13.21" cy="20.27" rx="0.64" ry="0.76"/></svg>