<?xml version="1.0" encoding="utf-8"?>
<!-- Generator: Adobe Illustrator 26.0.2, SVG Export Plug-In . SVG Version: 6.00 Build 0)  -->
<svg version="1.1" id="Layer_1" xmlns="http://www.w3.org/2000/svg" xmlns:xlink="http://www.w3.org/1999/xlink" x="0px" y="0px"
	 viewBox="0 0 40.28 40.28" style="enable-background:new 0 0 40.28 40.28;" xml:space="preserve">
<style type="text/css">
	.st0{opacity:0.8;}
	.st1{opacity:0.9;}
	.st2{fill:#71DB1F;}
	.st3{fill:#FFFFFF;}
	.st4{fill:#F7B600;}
	.st5{fill:#FFDD7D;}
	.st6{fill:#493816;}
	.st7{fill:#42ADE2;}
	.st8{fill:#FF8736;}
	.st9{fill:#ED4C5C;}
	.st10{fill:#C28FEF;}
	.st11{fill:#D0D0D0;}
	.st12{fill:#89664C;}
	.st13{fill:#B0BDC6;}
	.st14{fill:#E1EBEF;}
	.st15{fill:#94989B;}
	.st16{fill:#7D8B91;}
	.st17{fill:#D9E3E8;}
	.st18{fill:#076170;}
	.st19{fill:#B3690E;}
	.st20{fill:#3BAACF;}
	.st21{fill:#E9C243;}
	.st22{opacity:0.3;enable-background:new    ;}
	.st23{fill:#4FC7E8;}
	.st24{fill:#F0AE11;}
	.st25{fill:#F8D048;}
	.st26{fill:#C47116;}
	.st27{fill:#EA9F07;}
	.st28{fill:#824000;}
	.st29{fill:#1B8923;}
	.st30{fill:#33C13D;}
	.st31{fill:none;stroke:#FFFFFF;stroke-width:2;stroke-miterlimit:10;}
	.st32{fill:#F9D608;}
	.st33{fill:#11DAEF;}
	.st34{fill:#7A93A5;}
	.st35{fill:#CAD5DD;}
	.st36{fill:#DFE9EF;}
	.st37{fill:#79D3F7;}
	.st38{fill:#F2B200;}
	.st39{fill:#FFCE31;}
	.st40{fill:#BC845E;}
	.st41{fill:#916140;}
	.st42{fill:#CE9C7A;}
	.st43{fill:#F2335C;}
	.st44{fill:#FF5A79;}
	.st45{fill:#FFDD67;}
	.st46{fill:#EBA352;}
	.st47{fill:none;stroke:#000000;stroke-width:2;stroke-miterlimit:10;}
</style>
<g>
	<circle class="st3" cx="20.14" cy="20.14" r="20.14"/>
	<g>
		<g>
			<path class="st45" d="M20.05,22.04c0,0-1.68-0.34-0.29,2.56c1.01,2.09,0.91,4.53,0,5.82c-1.45,2.07-4.28,1.39-3.99,0.2
				c1.01-4.08-1.27-5.29-2.45-7.87c-1.19-2.61-1.06-6.31-0.51-9.6c0.34-2.06,1.21-4.6,4.43-4.6h4.44L20.05,22.04z"/>
			<path class="st46" d="M17.72,9.12c-3.21,0-3.92,2.54-4.26,4.6c-0.55,3.3-0.64,5.93,0.42,8.59c1.15,2.9,2.36,2.98,2.36,8.71
				c0,0.29,0.15,0.48,0.31,0.6c-0.54-0.18-0.85-0.5-0.85-0.96c0-4.29-1.2-5.34-2.38-7.91c-1.19-2.61-1.06-6.31-0.51-9.61
				c0.34-2.06,1.21-4.6,4.43-4.6h4.44v0.57L17.72,9.12L17.72,9.12z"/>
			<path class="st45" d="M25.55,18.66h-5.5c-1.92,0-1.92,3.37,0,3.37h5.5C27.47,22.04,27.47,18.66,25.55,18.66z"/>
			<path class="st46" d="M25.98,19.22h-5.5c-1.3,0-1.71,1.53-1.26,2.53c-1.03-0.8-0.75-3.09,0.83-3.09h5.5
				c0.62,0,1.04,0.36,1.26,0.84C26.59,19.33,26.32,19.22,25.98,19.22z"/>
			<path class="st45" d="M26.14,15.28h-6.6c-2.3,0-2.3,3.37,0,3.37h6.6C28.45,18.65,28.45,15.28,26.14,15.28z"/>
			<path class="st46" d="M26.66,15.84h-6.6c-1.55,0-2.06,1.53-1.51,2.53c-1.23-0.8-0.9-3.09,1-3.09h6.6c0.75,0,1.25,0.36,1.51,0.84
				C27.39,15.95,27.06,15.84,26.66,15.84z"/>
			<path class="st45" d="M25.53,11.91h-5.58c-1.95,0-1.95,3.37,0,3.37h5.58C27.47,15.28,27.47,11.91,25.53,11.91z"/>
			<path class="st46" d="M25.96,12.47h-5.58c-1.31,0-1.74,1.53-1.28,2.53c-1.04-0.8-0.76-3.09,0.84-3.09h5.58
				c0.63,0,1.06,0.36,1.28,0.84C26.58,12.58,26.3,12.47,25.96,12.47z"/>
			<path class="st45" d="M24.93,8.54h-3.61c-2.08,0-2.08,3.37,0,3.37h3.61C27.01,11.91,27.01,8.54,24.93,8.54z"/>
			<path class="st46" d="M25.39,9.1h-3.61c-1.4,0-1.86,1.53-1.37,2.53c-1.11-0.8-0.82-3.09,0.9-3.09h3.61
				c0.68,0,1.13,0.36,1.37,0.84C26.05,9.21,25.76,9.1,25.39,9.1z"/>
		</g>
	</g>
</g>
</svg>
