<svg id="Layer_1" data-name="Layer 1" xmlns="http://www.w3.org/2000/svg" viewBox="0 0 40.28 40.28"><defs><style>.cls-1{fill:#fff;}.cls-2{fill:#1b8923;}.cls-3{fill:#33c13d;}</style></defs><circle class="cls-1" cx="20.14" cy="20.14" r="20.14"/><path class="cls-2" d="M31.67,19.51h0a.53.53,0,0,0-.23-.4,46.26,46.26,0,0,1-4-3.18l-.18-.2c.66-.71,3.18-1.1,3.18-2.45v-.74h0c0-.49-.33-1.1-1.2-1.9-3.82-4.11-3.39,3.86-5.29,1.8a46.26,46.26,0,0,1-3.18-4,.52.52,0,0,0-.85,0q-2,2.23-4,4.38a.21.21,0,0,0,0,.13h0v.72h0c0,.08,0,.18.3.22.47.09,1.21-.32,2.11.67a1.75,1.75,0,0,1,.43.83,3.93,3.93,0,0,1-1.06,1.9c-.54.54-2.22,1.75-3.46.63-1-.9-.57-1.65-.66-2.12s-.35-.26-.35-.26c-1.42,1.37-2.88,2.72-4.37,4a.61.61,0,0,0-.21.39h0v.86h0a.56.56,0,0,0,.22.34,45.3,45.3,0,0,1,4,3.18,1.17,1.17,0,0,1,.19.2c-.68.72-3.28,1.11-3.17,2.53v.55a.6.6,0,0,0,0,.19h0A3.12,3.12,0,0,0,11,29.64c3.81,4.11,3.39-3.86,5.29-1.8a46.26,46.26,0,0,1,3.18,4,.52.52,0,0,0,.85,0q2-2.24,4-4.38a.22.22,0,0,0,0-.14h0v-.72h0c0-.08-.08-.16-.3-.21-.47-.08-1.22.33-2.11-.66a1.75,1.75,0,0,1-.43-.83A4,4,0,0,1,22.6,23c.55-.55,2.23-1.75,3.47-.63a1.86,1.86,0,0,1,.65,1.13,1.93,1.93,0,0,0,0,.25V24a2.15,2.15,0,0,0,0,.44c.09.44.35.26.35.26q2.13-2.07,4.37-4a.57.57,0,0,0,.21-.41h0Z"/><path class="cls-3" d="M22.6,22.24c-.54.54-1.74,2.22-.62,3.46.89,1,1.64.58,2.11.66s.27.35.27.35q-2.07,2.13-4,4.38a.52.52,0,0,1-.85,0,44.52,44.52,0,0,0-3.18-4C14.4,25.05,14.82,33,11,28.91c-4.12-3.82,3.85-3.4,1.79-5.29a49.17,49.17,0,0,0-4-3.19.51.51,0,0,1,0-.85c1.49-1.3,2.95-2.65,4.37-4,0,0,.26-.18.35.26s-.33,1.22.66,2.12c1.24,1.12,2.92-.09,3.46-.63s1.75-2.23.63-3.46c-.9-1-1.64-.58-2.11-.67s-.27-.34-.27-.34Q18,10.7,20,8.46a.52.52,0,0,1,.85,0,46.26,46.26,0,0,0,3.18,4c1.9,2.06,1.47-5.91,5.29-1.8,4.11,3.82-3.85,3.39-1.8,5.29a46.26,46.26,0,0,0,4,3.18.51.51,0,0,1,0,.85q-2.23,2-4.37,4s-.26.18-.35-.27.33-1.21-.66-2.11C24.83,20.49,23.15,21.69,22.6,22.24Z"/></svg>