<svg id="Layer_1" data-name="Layer 1" xmlns="http://www.w3.org/2000/svg" viewBox="0 0 40.28 40.28"><defs><style>.cls-1{fill:#fff;}.cls-2{fill:#f7b600;}.cls-3{fill:#ffdd7d;}.cls-4{fill:#493816;}.cls-5{fill:#42ade2;}.cls-6{fill:#ff8736;}.cls-7{fill:#ed4c5c;}.cls-8{fill:#c28fef;}</style></defs><circle class="cls-1" cx="20.14" cy="20.14" r="20.14"/><polygon class="cls-2" points="7.98 31.74 11.7 30.44 8.89 29.13 7.98 31.74"/><polygon class="cls-3" points="18.83 21.04 13.55 15.72 12.69 18.18 18.83 21.04"/><polygon class="cls-2" points="12.69 18.18 11.74 20.92 23.4 26.35 23.93 26.16 18.83 21.04 12.69 18.18"/><polygon class="cls-3" points="10.79 23.65 19.5 27.71 23.4 26.35 11.74 20.92 10.79 23.65"/><polygon class="cls-2" points="9.84 26.39 15.6 29.08 19.5 27.71 10.79 23.65 9.84 26.39"/><polygon class="cls-3" points="9.84 26.39 8.89 29.13 11.7 30.44 15.6 29.08 9.84 26.39"/><path class="cls-4" d="M21,18.78c2.93,2.89,4.45,6.08,3.38,7.13s-4.31-.45-7.25-3.33-4.44-6.08-3.38-7.13S18.05,15.89,21,18.78Z"/><path class="cls-5" d="M17.33,11.5c-.7-1,.07-1.42,1-1.24-.9-1.11-.34-1.87,1.07-1.57.44.09-.17.84-.57.81,1.19.89.54,1.83-.72,1.61,1.11,1.53-.8,1.15-1.64,1.22-.22,1.14,1.09,2.45.65,2.45C16.16,14.78,14.61,11.16,17.33,11.5Z"/><path class="cls-6" d="M26.49,13.62C25.85,13.91,24,11,26.26,11c-1.29-1.18-1.12-1.75.61-1.78-2-2,1.16-2.72,1.49-1.65.1.32-1-.28-1.31.29s2.45,2.33-.49,2.23c1.08,1.1,1.15,1.62-.58,1.8C26.21,12.21,26.9,13.43,26.49,13.62Z"/><path class="cls-7" d="M27.22,20.4l.66-.56A8,8,0,0,0,29,21.09c.33-1.55.24-2.49,2.05-1.42-1-2.7.66-1.68,2.25-1-.09-.68,0-.61.7-.8.61,2.29-1,1.63-2.37.87.77,2.07,0,2-1.71,1.27,0,.88-.31,1.87-.84,2S27.22,20.4,27.22,20.4Z"/><path class="cls-8" d="M22.34,13.93c-.8,1-2,1.63-2.95,2.54S17.85,20,17.85,20s.34-2.73,1.26-3.78,2-1.64,2.68-2.75c1.16-2,.13-4.62-1.35-6.13.31-.28.72-.63,1-.87C22.8,8.29,24,11.73,22.34,13.93Z"/><path class="cls-6" d="M23.68,16.16a12.61,12.61,0,0,0-2.74,3.17A11.72,11.72,0,0,1,18,21.58a11.92,11.92,0,0,0,2.73-2.48,11.76,11.76,0,0,1,2.77-3.6c2.44-1.89,5.95-1.68,8.71-.69L31.75,16S26,14.49,23.68,16.16Z"/><path class="cls-5" d="M28.54,16a21.62,21.62,0,0,0-1.67,3.2,5.48,5.48,0,0,1-2.23,2.48A9.17,9.17,0,0,1,21,22a8.77,8.77,0,0,0,3.53-.72,5.87,5.87,0,0,0,2-3.05c.77-2.16,1.73-4.52,4-5.48L31,14A5.16,5.16,0,0,0,28.54,16Z"/><rect class="cls-5" x="8.88" y="10.54" width="1.74" height="1.74" transform="translate(-5.21 10.24) rotate(-45.01)"/><rect class="cls-6" x="10.59" y="14.43" width="1.74" height="1.74" transform="translate(-7.46 12.59) rotate(-45)"/><rect class="cls-7" x="13.73" y="8.61" width="1.74" height="1.74" transform="translate(-2.43 13.11) rotate(-45.01)"/><rect class="cls-8" x="27.13" y="23.33" width="1.74" height="1.74" transform="translate(-8.91 26.89) rotate(-45)"/><rect class="cls-7" x="24.39" y="27.55" width="1.74" height="1.74" transform="translate(-12.7 26.18) rotate(-45)"/><rect class="cls-6" x="29.78" y="28.52" width="1.74" height="1.74" transform="translate(-11.8 30.28) rotate(-45)"/><rect class="cls-5" x="31.01" y="22.91" width="1.74" height="1.74" transform="translate(-7.48 29.51) rotate(-45)"/><rect class="cls-5" x="28.96" y="9.92" width="1.74" height="1.74" transform="translate(1.11 24.25) rotate(-45)"/><rect class="cls-7" x="15.76" y="17.31" width="1.74" height="1.74" transform="translate(-7.99 17.08) rotate(-45)"/></svg>