<svg id="Layer_1" data-name="Layer 1" xmlns="http://www.w3.org/2000/svg" viewBox="0 0 40.28 40.28"><defs><style>.cls-1{fill:#fff;}.cls-2{fill:#076170;}.cls-3{fill:#b3690e;}.cls-4{fill:#3baacf;}.cls-5{fill:#e9c243;}.cls-6{isolation:isolate;opacity:0.3;}.cls-7{fill:#4fc7e8;}.cls-8{fill:#f0ae11;}.cls-9{fill:#f8d048;}.cls-10{fill:#c47116;}.cls-11{fill:#ea9f07;}.cls-12{fill:#824000;}</style></defs><circle class="cls-1" cx="20.14" cy="20.14" r="20.14"/><path class="cls-2" d="M20.08,20v13.8s5.68-4,9.68-5.19c0,0,.16-8.52,2.65-12.8Z"/><path class="cls-3" d="M23.67,31.66s.24-12.22.67-12.86,4.19-1.28,4.19-1.28S27,29,27.38,29.69A30.72,30.72,0,0,0,23.67,31.66Z"/><path class="cls-4" d="M20.08,33.77A30.65,30.65,0,0,0,9.87,28.58s.49-7-1.8-12.36l12,3.75v13.8Z"/><path class="cls-5" d="M12.39,29.72s3.64,1.49,3.92,1.94.25-12.29.25-12.29S11.56,18,11.13,18A39.94,39.94,0,0,1,12.39,29.72Z"/><g class="cls-6"><path d="M20.08,20v2.31l11.2-3.83a13.57,13.57,0,0,1,1.13-2.67Z"/></g><g class="cls-6"><path d="M8.89,18.61a18.21,18.21,0,0,0-.82-2.39l12,3.75v2.31Z"/></g><polygon class="cls-7" points="7.09 15 19.51 17.75 33.19 14.47 19.74 13.72 7.09 15"/><polygon class="cls-4" points="7.09 15 8.07 17.75 19.51 20.97 19.51 17.75 7.09 15"/><path class="cls-2" d="M19.51,21s10.33-3.84,12.9-4a6.8,6.8,0,0,1,.78-2.5L19.51,17.75Z"/><polygon class="cls-8" points="10.81 15.82 13.3 18.22 16.08 16.99 20.14 15.74 25.2 16.37 27.84 16.89 29.97 15.24 10.81 15.82"/><polygon class="cls-8" points="16.08 16.99 20.14 15.74 25.2 16.37 29.97 15.24 19.89 14.26 10.81 15.82 16.08 16.99"/><polygon class="cls-9" points="10.81 15.82 10.81 18.87 15.88 20.28 16.08 16.99 10.81 15.82"/><polygon class="cls-10" points="25.2 16.37 25.28 19.27 29.64 17.98 29.97 15.24 25.2 16.37"/><path class="cls-11" d="M22.43,14.34a8.26,8.26,0,0,1,2.94-5.7,7.31,7.31,0,0,1-2.64.47c-1-.2-1.35-1.44-1.35-1.44s-2.54,5.47-1.8,6.19S22.43,14.34,22.43,14.34Z"/><path class="cls-9" d="M18.59,16.09A13,13,0,0,0,13.3,10.8a20.91,20.91,0,0,0,3.5-.61,3.33,3.33,0,0,0,1.31-1.47s3.14,5.5,2.86,6.33S18.59,16.09,18.59,16.09Z"/><path class="cls-11" d="M20.39,15.7a18.44,18.44,0,0,1-6,1c-7.12,0-8.15-5.16-1.1-4.65C19,12.48,20.39,15.7,20.39,15.7Z"/><path class="cls-8" d="M19.9,15.68a21.59,21.59,0,0,0,6.06-.5c6.1-1.54,3.83-6.19-1.9-4.23C19.35,12.57,19.9,15.68,19.9,15.68Z"/><path class="cls-12" d="M20.39,15.7a11.45,11.45,0,0,1-3.77.64c-4.44,0-5.08-3.22-.68-2.91C19.55,13.69,20.39,15.7,20.39,15.7Z"/><path class="cls-12" d="M20.39,15.69a15.07,15.07,0,0,0,4.22-.34c4.26-1.08,2.68-4.32-1.32-2.95C20,13.53,20.39,15.69,20.39,15.69Z"/></svg>