<svg id="Layer_1" data-name="Layer 1" xmlns="http://www.w3.org/2000/svg" viewBox="0 0 40.28 40.28"><defs><style>.cls-1{fill:#fff;}.cls-2{fill:#89664c;}.cls-3{fill:#b0bdc6;}.cls-4{fill:#e1ebef;}.cls-5{fill:#94989b;}.cls-6{fill:#7d8b91;}.cls-7{fill:#d9e3e8;}</style></defs><circle class="cls-1" cx="20.14" cy="20.14" r="20.14"/><polygon class="cls-2" points="33.19 30.06 7.09 30.06 9.4 11.31 30.88 11.31 33.19 30.06"/><path class="cls-3" d="M17.78,9.85c-2.35,0-6.76.76-8.18.31A99.12,99.12,0,0,1,8,29.5c2.81-.2,6.56-1.8,9.36-1.8s2.84,1.8,2.84,1.8V11.83A2.12,2.12,0,0,0,17.78,9.85Z"/><path class="cls-4" d="M17.81,9.54c-2.36,0-6,.74-7.09-.68A79.43,79.43,0,0,1,8.64,28.1c.89,1.25,5.73-.43,8.53-.43s3,1.83,3,1.83v-18A2.08,2.08,0,0,0,17.81,9.54Z"/><path class="cls-5" d="M17.33,27.7c-2.8,0-7.76,1.8-9.36,1.8h12.2S20.14,27.7,17.33,27.7Z"/><path class="cls-6" d="M11.91,12.21l0-.34a12.88,12.88,0,0,0,1.84-.29A18.49,18.49,0,0,1,17,11.13a3.12,3.12,0,0,1,1.78.33l-.11.13-.11.14A3.17,3.17,0,0,0,17,11.47a18.05,18.05,0,0,0-3.19.44A12.2,12.2,0,0,1,11.91,12.21Z"/><path class="cls-6" d="M11.75,14l0-.36a13.68,13.68,0,0,0,1.88-.29A18.18,18.18,0,0,1,17,12.85a3.12,3.12,0,0,1,1.81.34l-.11.14-.11.14A3.2,3.2,0,0,0,17,13.2a18.67,18.67,0,0,0-3.25.46A12,12,0,0,1,11.75,14Z"/><path class="cls-6" d="M11.57,15.8l0-.37a12.16,12.16,0,0,0,1.92-.31,18.09,18.09,0,0,1,3.38-.48,3.25,3.25,0,0,1,1.85.35l-.12.15-.11.14A3.24,3.24,0,0,0,16.89,15a18.49,18.49,0,0,0-3.31.48A11.61,11.61,0,0,1,11.57,15.8Z"/><path class="cls-6" d="M11.4,17.71l0-.38a11.9,11.9,0,0,0,2-.33,18.89,18.89,0,0,1,3.45-.5,3.22,3.22,0,0,1,1.89.37l-.12.15-.12.15a3.15,3.15,0,0,0-1.66-.29,17.82,17.82,0,0,0-3.39.5A12.23,12.23,0,0,1,11.4,17.71Z"/><path class="cls-6" d="M11.21,19.7l0-.4a12.67,12.67,0,0,0,2-.34,19,19,0,0,1,3.52-.52,3.27,3.27,0,0,1,1.93.38l-.12.16-.12.16a3.21,3.21,0,0,0-1.7-.31,17.86,17.86,0,0,0-3.46.53A13.07,13.07,0,0,1,11.21,19.7Z"/><path class="cls-6" d="M11,21.78l0-.42a12.49,12.49,0,0,0,2-.35,18.3,18.3,0,0,1,3.6-.55,3.31,3.31,0,0,1,2,.4l-.13.16-.12.17a3.17,3.17,0,0,0-1.74-.32,18,18,0,0,0-3.53.55A13,13,0,0,1,11,21.78Z"/><path class="cls-6" d="M10.82,24l0-.44a12.26,12.26,0,0,0,2.08-.37,18.52,18.52,0,0,1,3.68-.57,3.2,3.2,0,0,1,2,.42l-.12.17-.13.17A3.2,3.2,0,0,0,16.61,23a18,18,0,0,0-3.61.57A13,13,0,0,1,10.82,24Z"/><path class="cls-6" d="M10.6,26.22l.05-.46a12.29,12.29,0,0,0,2.13-.39,18.79,18.79,0,0,1,3.76-.6,3.26,3.26,0,0,1,2.06.44l-.13.18-.13.18a3.18,3.18,0,0,0-1.81-.35,18.46,18.46,0,0,0-3.7.6A12.8,12.8,0,0,1,10.6,26.22Z"/><path class="cls-3" d="M22.51,9.85c2.35,0,6.76.76,8.18.31A99.51,99.51,0,0,0,32.31,29.5c-2.8-.2-6.55-1.8-9.36-1.8s-2.83,1.8-2.83,1.8V11.83A2.12,2.12,0,0,1,22.51,9.85Z"/><path class="cls-7" d="M22.48,9.54c2.36,0,6,.74,7.09-.68A79.46,79.46,0,0,0,31.65,28.1c-.89,1.25-5.73-.43-8.54-.43s-3,1.83-3,1.83v-18A2.08,2.08,0,0,1,22.48,9.54Z"/><path class="cls-5" d="M23,27.7c2.81,0,7.77,1.8,9.36,1.8H20.12S20.15,27.7,23,27.7Z"/><path class="cls-6" d="M28.38,12.21l0-.34a12.88,12.88,0,0,1-1.84-.29,18.49,18.49,0,0,0-3.25-.45,3.12,3.12,0,0,0-1.78.33l.11.13.11.14a3.17,3.17,0,0,1,1.57-.26,18.05,18.05,0,0,1,3.19.44A12.2,12.2,0,0,0,28.38,12.21Z"/><path class="cls-6" d="M28.54,14l0-.36a13.68,13.68,0,0,1-1.88-.29,18.31,18.31,0,0,0-3.31-.47,3.12,3.12,0,0,0-1.81.34l.11.14.11.14a3.2,3.2,0,0,1,1.6-.27,18.67,18.67,0,0,1,3.25.46A12,12,0,0,0,28.54,14Z"/><path class="cls-6" d="M28.71,15.8l0-.37a12.16,12.16,0,0,1-1.92-.31,18.09,18.09,0,0,0-3.38-.48,3.25,3.25,0,0,0-1.85.35l.12.15.11.14A3.24,3.24,0,0,1,23.4,15a18.61,18.61,0,0,1,3.31.48A11.67,11.67,0,0,0,28.71,15.8Z"/><path class="cls-6" d="M28.89,17.71l0-.38a11.9,11.9,0,0,1-2-.33,18.89,18.89,0,0,0-3.45-.5,3.22,3.22,0,0,0-1.89.37l.12.15.12.15a3.15,3.15,0,0,1,1.66-.29,17.82,17.82,0,0,1,3.39.5A12.23,12.23,0,0,0,28.89,17.71Z"/><path class="cls-6" d="M29.08,19.7l0-.4A12.67,12.67,0,0,1,27,19a19,19,0,0,0-3.52-.52,3.27,3.27,0,0,0-1.93.38l.12.16.12.16a3.21,3.21,0,0,1,1.7-.31,17.86,17.86,0,0,1,3.46.53A13.07,13.07,0,0,0,29.08,19.7Z"/><path class="cls-6" d="M29.27,21.78l0-.42a12.32,12.32,0,0,1-2-.35,18.3,18.3,0,0,0-3.6-.55,3.31,3.31,0,0,0-2,.4l.13.16.12.17a3.17,3.17,0,0,1,1.74-.32,18,18,0,0,1,3.53.55A13,13,0,0,0,29.27,21.78Z"/><path class="cls-6" d="M29.47,24l0-.44a12.09,12.09,0,0,1-2.08-.37,18.63,18.63,0,0,0-3.68-.57,3.2,3.2,0,0,0-2,.42l.12.17.13.17A3.2,3.2,0,0,1,23.68,23a18,18,0,0,1,3.61.57A13,13,0,0,0,29.47,24Z"/><path class="cls-6" d="M29.68,26.22l0-.46a12.13,12.13,0,0,1-2.13-.39,18.77,18.77,0,0,0-3.77-.6,3.21,3.21,0,0,0-2,.44l.13.18.12.18a3.28,3.28,0,0,1,1.82-.35,18.26,18.26,0,0,1,3.69.6A13,13,0,0,0,29.68,26.22Z"/></svg>