<svg id="Layer_1" data-name="Layer 1" xmlns="http://www.w3.org/2000/svg" viewBox="0 0 40.28 40.28"><defs><style>.cls-1{fill:#fff;}.cls-2{fill:#f2b200;}.cls-3{fill:#ffce31;}.cls-4{fill:#bc845e;}.cls-5{fill:#916140;}.cls-6{fill:#ce9c7a;}</style></defs><circle class="cls-1" cx="20.14" cy="20.14" r="20.14"/><path class="cls-2" d="M13.27,20a1.34,1.34,0,0,1-.55-.13c-.46-.24-1-.88-1-2.59a8.72,8.72,0,0,0-1.91-5.66l-.31-.33,1.68-1.85.29.43a2.23,2.23,0,0,0,2.32.95l.19.92a2.86,2.86,0,0,1-2.86-.91l-.43.47a10,10,0,0,1,1.88,6c0,.93.19,1.56.52,1.73s.63,0,1-.36a9.61,9.61,0,0,0,1.6-3.22l.8.3a10.39,10.39,0,0,1-1.84,3.62A2,2,0,0,1,13.27,20Z"/><path class="cls-2" d="M27,20a1.35,1.35,0,0,0,.56-.13c.46-.24,1-.88,1-2.59a8.69,8.69,0,0,1,1.92-5.66l.31-.33L29.12,9.48l-.29.43a2.23,2.23,0,0,1-2.32.95l-.2.92a2.87,2.87,0,0,0,2.87-.91l.43.47a10,10,0,0,0-1.88,6c0,.93-.19,1.56-.52,1.73s-.63,0-1-.36a9.61,9.61,0,0,1-1.6-3.22l-.8.29a10.33,10.33,0,0,0,1.84,3.63A2,2,0,0,0,27,20Z"/><rect class="cls-2" x="19.06" y="17.63" width="2.17" height="8.7"/><rect class="cls-3" x="19.5" y="17.63" width="1.28" height="8.7"/><path class="cls-2" d="M13,9.48c.61,5.46,3.59,9.85,7.17,9.85s6.56-4.39,7.17-9.85Z"/><path class="cls-3" d="M14.35,9.48c.49,5.53,2.9,10,5.79,10s5.29-4.43,5.79-10Z"/><path class="cls-2" d="M25.7,28H14.58s2.49-3.21,5.56-3.21S25.7,28,25.7,28Z"/><path class="cls-3" d="M24.36,28H15.92s1.89-3.26,4.22-3.26S24.36,28,24.36,28Z"/><rect class="cls-4" x="12.96" y="28.67" width="14.35" height="2.13"/><rect class="cls-5" x="14.58" y="27.96" width="11.13" height="0.71"/><rect class="cls-2" x="16.58" y="29.2" width="7.11" height="1.07"/><rect class="cls-6" x="12.96" y="28.67" width="0.71" height="2.13"/><rect class="cls-5" x="26.6" y="28.67" width="0.71" height="2.13"/><rect class="cls-3" x="16.94" y="29.2" width="6.4" height="1.07"/></svg>