<svg id="Layer_1" data-name="Layer 1" xmlns="http://www.w3.org/2000/svg" viewBox="0 0 40.28 40.28"><defs><style>.cls-1{fill:#fff;}.cls-2{fill:#b0bdc6;}.cls-3{fill:#cad5dd;}.cls-4{fill:#dfe9ef;}.cls-5{fill:#79d3f7;}</style></defs><circle class="cls-1" cx="20.14" cy="20.14" r="20.14"/><path class="cls-2" d="M13.32,27.57l5.3-7.15L15,13.89a3.19,3.19,0,0,0-.41,1.23L13.22,26.37A2.53,2.53,0,0,0,13.32,27.57Z"/><path class="cls-2" d="M30.8,10.91l-7.62,9.32,5.37,9.06a2.94,2.94,0,0,0,.65-1.54l1.89-15.33A2.14,2.14,0,0,0,30.8,10.91Z"/><path class="cls-3" d="M20.29,23.62l-1.67-3.2-5.3,7.15c.11.29.28.48.49.51l13.71,1.69a1.22,1.22,0,0,0,1-.48l-5.37-9.06Z"/><path class="cls-4" d="M29.89,10.53,15.63,13.35a1.07,1.07,0,0,0-.62.54l3.61,6.53,1.67,3.2,2.89-3.39,7.62-9.32A.86.86,0,0,0,29.89,10.53Z"/><path class="cls-5" d="M12.25,24.6a.46.46,0,0,1,.46.52l-.24,2.1a.51.51,0,0,1-.57.44l-2.19-.3a.51.51,0,0,1-.44-.58l.24-1.73a.59.59,0,0,1,.59-.5Z"/><path class="cls-5" d="M13,19.35a.4.4,0,0,1,.45.47l-.29,2.33a.59.59,0,0,1-.58.52H9.61a.44.44,0,0,1-.44-.51l.32-2a.7.7,0,0,1,.59-.56Z"/><path class="cls-5" d="M13.71,13.75a.36.36,0,0,1,.45.42l-.29,2.36a.7.7,0,0,1-.58.57l-3.64.4A.38.38,0,0,1,9.22,17l.34-2a.77.77,0,0,1,.59-.6Z"/></svg>