<svg id="Layer_1" data-name="Layer 1" xmlns="http://www.w3.org/2000/svg" viewBox="0 0 60 60"><defs><style>.cls-1{fill:#fff;}</style></defs><path class="cls-1" d="M49.46,6.11A10,10,0,0,0,35.38,4.26l-15,11.52-.17.13a9.88,9.88,0,0,0-2.48,2.78h-.06A10,10,0,0,0,8.5,29.55l1.64,19.09a10,10,0,0,0,10,9.18,8.64,8.64,0,0,0,.88,0,10,10,0,0,0,9.14-10.87l-.89-10.32a13.14,13.14,0,0,1-3,.33,8.77,8.77,0,0,1-1-.05l.89,10.39a6,6,0,1,1-12,1L12.49,29.21a6,6,0,0,1,.87-3.68,5.89,5.89,0,0,1,2.94-2.46,6,6,0,0,1,6.1,1,6.25,6.25,0,0,1,1.14,1.27,6,6,0,0,1,1,2.83l.13,1.51a6,6,0,0,1-3.16-2.12,2.71,2.71,0,0,1-.24-.35A4.63,4.63,0,0,1,21,26.7a0,0,0,0,1,0,0,2.88,2.88,0,0,0-.48-.51,3,3,0,0,0-1.95-.71h-.26a3,3,0,0,0-1.44.5.51.51,0,0,0-.19.56,10,10,0,0,0,5.32,6.4,10.12,10.12,0,0,0,3.08.91,11.17,11.17,0,0,0,1.29.08A9.86,9.86,0,0,0,29,33.55a10,10,0,0,0,2.9-1.34,5.88,5.88,0,0,0,.51-.36l15.2-11.66A10,10,0,0,0,49.46,6.11Zm-2,6.9a6,6,0,0,1-2.31,4L31.49,27.51,30,28.68a5.69,5.69,0,0,1-1.32.77l-.14-1.62a10.61,10.61,0,0,0-.27-1.61A9.94,9.94,0,0,0,25,21l0,0a9.7,9.7,0,0,0-2.7-1.62,3.27,3.27,0,0,1,.35-.3l2.29-1.76,12.91-9.9a6,6,0,0,1,3.66-1.25,7.34,7.34,0,0,1,.81.05,6,6,0,0,1,4,2.32A6,6,0,0,1,47.48,13Z"/></svg>