<svg id="Layer_1" data-name="Layer 1" xmlns="http://www.w3.org/2000/svg" viewBox="0 0 60 60"><defs><style>.cls-1{fill:#fff;}</style></defs><path class="cls-1" d="M45.79,23.43h1.83A1.44,1.44,0,0,0,49.05,22V14.56a2.23,2.23,0,0,0-2.23-2.23H38V9.07A6.58,6.58,0,0,0,31.38,2.5h0a6.57,6.57,0,0,0-6.57,6.57v3.26H16a2.23,2.23,0,0,0-2.23,2.23v8.87h-3A6.76,6.76,0,0,0,3.89,29.8a6.57,6.57,0,0,0,6.57,6.77h3.26v8.87A2.23,2.23,0,0,0,16,47.67h8.86v3.26a6.57,6.57,0,0,0,6.57,6.57h0A6.58,6.58,0,0,0,38,50.93V47.67h8.86a2.23,2.23,0,0,0,2.23-2.23V38a1.44,1.44,0,0,0-1.43-1.44H45.79a6.57,6.57,0,1,1,0-13.14Zm-20.08,18a2.43,2.43,0,0,1-3.33,0,2.2,2.2,0,0,1-.64-1.57,2.34,2.34,0,0,1,4-1.6,2.2,2.2,0,0,1,.65,1.6A2.17,2.17,0,0,1,25.71,41.45Zm7.06-12.61a6.14,6.14,0,0,1-2.86,2.26,11.36,11.36,0,0,1-4.19.72l-.1,3.1H22.49l-.14-5.49h1.28A16,16,0,0,0,27,29.09a4.67,4.67,0,0,0,2.46-1.32,4.06,4.06,0,0,0,.93-2.9A3.75,3.75,0,0,0,29.23,22a4.24,4.24,0,0,0-3-1.07,4.27,4.27,0,0,0-3,1.05,3.71,3.71,0,0,0-1.11,2.83H18.71a6.5,6.5,0,0,1,.89-3.57,6.38,6.38,0,0,1,2.63-2.43,8.58,8.58,0,0,1,4-.88,8.85,8.85,0,0,1,3.94.84,6.38,6.38,0,0,1,2.69,2.42,7.05,7.05,0,0,1,1,3.76A6.85,6.85,0,0,1,32.77,28.84Z"/></svg>