<svg id="Layer_1" data-name="Layer 1" xmlns="http://www.w3.org/2000/svg" viewBox="0 0 60 60"><defs><style>.cls-1{fill:#fff;}</style></defs><path class="cls-1" d="M42,36.34a1,1,0,0,1-.7-.29,1,1,0,0,1,0-1.39,6.81,6.81,0,0,0,0-9.62,1,1,0,0,1,1.4-1.39,8.78,8.78,0,0,1,0,12.4A.94.94,0,0,1,42,36.34Z"/><path class="cls-1" d="M46.5,40.84a1,1,0,0,1-.7-.29,1,1,0,0,1,0-1.39,13.17,13.17,0,0,0,0-18.62,1,1,0,0,1,1.4-1.39,15.15,15.15,0,0,1,0,21.4A1,1,0,0,1,46.5,40.84Z"/><path class="cls-1" d="M51,45.34a1,1,0,0,1-.7-.29,1,1,0,0,1,0-1.39A19.56,19.56,0,0,0,50.3,16a1,1,0,1,1,1.4-1.39,21.52,21.52,0,0,1,0,30.4A1,1,0,0,1,51,45.34Z"/><path class="cls-1" d="M35.17,7.81,15.48,22.75a5.26,5.26,0,0,0-2,4.11v5.33a.57.57,0,0,1-1.12.18l-1.54-4.64A5.08,5.08,0,0,0,6,24.26H3.34A1.32,1.32,0,0,0,2,25.59v8.82a1.32,1.32,0,0,0,1.32,1.33H12.9A1.79,1.79,0,0,1,14,36.1l21.2,16.09a1.33,1.33,0,0,0,2.13-1.06V8.87A1.33,1.33,0,0,0,35.17,7.81Z"/></svg>